<?xml version="1.0" standalone="no"?>
<!DOCTYPE svg PUBLIC "-//W3C//DTD SVG 20010904//EN"
 "http://www.w3.org/TR/2001/REC-SVG-20010904/DTD/svg10.dtd">
<svg version="1.0" xmlns="http://www.w3.org/2000/svg"
 width="300.000000pt" height="249.000000pt" viewBox="0 0 300.000000 249.000000"
 preserveAspectRatio="xMidYMid meet">
<metadata>
Created by potrace 1.10, written by Peter Selinger 2001-2011
</metadata>
<g transform="translate(0.000000,249.000000) scale(0.100000,-0.100000)"
fill="#000000" stroke="none">
<path d="M460 2480 c0 -5 5 -10 10 -10 6 0 10 5 10 10 0 6 -4 10 -10 10 -5 0
-10 -4 -10 -10z"/>
<path d="M597 2433 c-3 -5 156 -8 353 -8 197 0 356 3 353 8 -2 4 -161 7 -353
7 -192 0 -351 -3 -353 -7z"/>
<path d="M460 2405 c0 -14 5 -25 10 -25 6 0 10 11 10 25 0 14 -4 25 -10 25 -5
0 -10 -11 -10 -25z"/>
<path d="M582 2154 c-2 -242 -1 -262 16 -277 17 -15 56 -17 354 -17 313 0 336
1 352 18 15 17 16 47 13 278 l-2 259 -3 -260 c-1 -187 -5 -264 -14 -273 -18
-18 -681 -17 -697 1 -7 9 -12 102 -14 273 l-2 259 -3 -261z"/>
<path d="M1047 2393 c-18 -17 1 -22 103 -25 99 -3 110 -1 110 15 0 15 -12 17
-103 17 -57 0 -107 -3 -110 -7z"/>
<path d="M460 2315 c0 -14 5 -25 10 -25 6 0 10 11 10 25 0 14 -4 25 -10 25 -5
0 -10 -11 -10 -25z"/>
<path d="M828 2333 c7 -3 16 -2 19 1 4 3 -2 6 -13 5 -11 0 -14 -3 -6 -6z"/>
<path d="M858 2299 c-6 -4 -8 -14 -5 -23 5 -13 23 -16 92 -16 83 0 86 1 83 22
-3 20 -9 21 -81 22 -44 1 -84 -2 -89 -5z"/>
<path d="M1060 2302 c-6 -2 -10 -12 -10 -23 0 -17 8 -19 84 -19 83 0 110 10
88 32 -9 9 -140 17 -162 10z"/>
<path d="M460 2225 c0 -14 5 -25 10 -25 6 0 10 11 10 25 0 14 -4 25 -10 25 -5
0 -10 -11 -10 -25z"/>
<path d="M902 2214 c12 -11 316 -16 323 -5 4 8 -45 11 -161 11 -92 0 -165 -3
-162 -6z"/>
<path d="M983 2163 c48 -2 125 -2 170 0 45 1 6 3 -88 3 -93 0 -130 -2 -82 -3z"/>
<path d="M460 2135 c0 -14 5 -25 10 -25 6 0 10 11 10 25 0 14 -4 25 -10 25 -5
0 -10 -11 -10 -25z"/>
<path d="M1010 2120 c0 -6 43 -10 110 -10 67 0 110 4 110 10 0 6 -43 10 -110
10 -67 0 -110 -4 -110 -10z"/>
<path d="M1261 2064 c0 -11 3 -14 6 -6 3 7 2 16 -1 19 -3 4 -6 -2 -5 -13z"/>
<path d="M460 2045 c0 -14 5 -25 10 -25 6 0 10 11 10 25 0 14 -4 25 -10 25 -5
0 -10 -11 -10 -25z"/>
<path d="M868 1993 c6 -2 18 -2 25 0 6 3 1 5 -13 5 -14 0 -19 -2 -12 -5z"/>
<path d="M2601 1984 c0 -11 3 -14 6 -6 3 7 2 16 -1 19 -3 4 -6 -2 -5 -13z"/>
<path d="M460 1955 c0 -14 5 -25 10 -25 6 0 10 11 10 25 0 14 -4 25 -10 25 -5
0 -10 -11 -10 -25z"/>
<path d="M2602 1910 c0 -19 2 -27 5 -17 2 9 2 25 0 35 -3 9 -5 1 -5 -18z"/>
<path d="M1735 1900 c3 -5 10 -10 16 -10 5 0 9 5 9 10 0 6 -7 10 -16 10 -8 0
-12 -4 -9 -10z"/>
<path d="M1794 1903 c11 -11 46 -14 46 -3 0 6 -12 10 -27 10 -14 0 -23 -3 -19
-7z"/>
<path d="M1880 1900 c0 -5 9 -9 20 -7 31 5 36 17 7 17 -15 0 -27 -4 -27 -10z"/>
<path d="M1964 1901 c7 -10 31 -9 42 2 4 4 -5 7 -20 7 -15 0 -25 -4 -22 -9z"/>
<path d="M2044 1903 c11 -11 46 -14 46 -3 0 6 -12 10 -27 10 -14 0 -23 -3 -19
-7z"/>
<path d="M2130 1901 c0 -6 9 -9 20 -8 11 1 20 5 20 9 0 4 -9 8 -20 8 -11 0
-20 -4 -20 -9z"/>
<path d="M2210 1900 c0 -5 9 -9 20 -7 31 5 36 17 7 17 -15 0 -27 -4 -27 -10z"/>
<path d="M2294 1903 c11 -11 46 -14 46 -3 0 6 -12 10 -27 10 -14 0 -23 -3 -19
-7z"/>
<path d="M2380 1902 c0 -4 9 -8 20 -9 11 -1 20 2 20 8 0 5 -9 9 -20 9 -11 0
-20 -4 -20 -8z"/>
<path d="M2460 1900 c0 -5 9 -9 20 -7 31 5 36 17 7 17 -15 0 -27 -4 -27 -10z"/>
<path d="M2544 1901 c7 -10 31 -9 42 2 4 4 -5 7 -20 7 -15 0 -25 -4 -22 -9z"/>
<path d="M2630 1902 c0 -4 9 -8 20 -9 11 -1 20 2 20 8 0 5 -9 9 -20 9 -11 0
-20 -4 -20 -8z"/>
<path d="M2710 1900 c0 -5 9 -9 20 -7 31 5 36 17 7 17 -15 0 -27 -4 -27 -10z"/>
<path d="M2790 1900 c0 -5 4 -10 9 -10 6 0 13 5 16 10 3 6 -1 10 -9 10 -9 0
-16 -4 -16 -10z"/>
<path d="M460 1865 c0 -14 5 -25 10 -25 6 0 10 11 10 25 0 14 -4 25 -10 25 -5
0 -10 -11 -10 -25z"/>
<path d="M2602 1820 c0 -19 2 -27 5 -17 2 9 2 25 0 35 -3 9 -5 1 -5 -18z"/>
<path d="M2154 1813 c251 -3 343 -7 355 -16 14 -11 14 -10 2 6 -12 16 -40 17
-355 15 l-341 -3 339 -2z"/>
<path d="M460 1775 c0 -14 5 -25 10 -25 6 0 10 11 10 25 0 14 -4 25 -10 25 -5
0 -10 -11 -10 -25z"/>
<path d="M1794 1530 c0 -146 2 -205 3 -132 2 72 2 192 0 265 -1 72 -3 13 -3
-133z"/>
<path d="M2520 1526 c0 -204 -3 -256 -14 -265 -10 -8 -110 -11 -359 -9 -190 2
-343 0 -340 -4 2 -5 159 -8 348 -8 299 0 346 2 359 16 14 13 16 52 16 270 0
140 -2 254 -5 254 -3 0 -5 -114 -5 -254z"/>
<path d="M260 1760 c0 -5 4 -10 9 -10 6 0 13 5 16 10 3 6 -1 10 -9 10 -9 0
-16 -4 -16 -10z"/>
<path d="M320 1760 c0 -5 11 -10 25 -10 14 0 25 5 25 10 0 6 -11 10 -25 10
-14 0 -25 -4 -25 -10z"/>
<path d="M400 1760 c0 -5 11 -10 25 -10 14 0 25 5 25 10 0 6 -11 10 -25 10
-14 0 -25 -4 -25 -10z"/>
<path d="M490 1760 c0 -5 9 -10 20 -10 11 0 20 5 20 10 0 6 -9 10 -20 10 -11
0 -20 -4 -20 -10z"/>
<path d="M570 1760 c0 -5 11 -10 25 -10 14 0 25 5 25 10 0 6 -11 10 -25 10
-14 0 -25 -4 -25 -10z"/>
<path d="M650 1760 c0 -5 11 -10 25 -10 14 0 25 5 25 10 0 6 -11 10 -25 10
-14 0 -25 -4 -25 -10z"/>
<path d="M740 1760 c0 -5 9 -10 20 -10 11 0 20 5 20 10 0 6 -9 10 -20 10 -11
0 -20 -4 -20 -10z"/>
<path d="M820 1760 c0 -5 9 -10 19 -10 11 0 23 5 26 10 4 6 -5 10 -19 10 -14
0 -26 -4 -26 -10z"/>
<path d="M900 1760 c0 -5 11 -10 25 -10 14 0 25 5 25 10 0 6 -11 10 -25 10
-14 0 -25 -4 -25 -10z"/>
<path d="M985 1760 c3 -5 15 -10 26 -10 10 0 19 5 19 10 0 6 -12 10 -26 10
-14 0 -23 -4 -19 -10z"/>
<path d="M1070 1760 c0 -5 9 -10 20 -10 11 0 20 5 20 10 0 6 -9 10 -20 10 -11
0 -20 -4 -20 -10z"/>
<path d="M1150 1760 c0 -5 11 -10 25 -10 14 0 25 5 25 10 0 6 -11 10 -25 10
-14 0 -25 -4 -25 -10z"/>
<path d="M1230 1760 c0 -5 11 -10 25 -10 14 0 25 5 25 10 0 6 -11 10 -25 10
-14 0 -25 -4 -25 -10z"/>
<path d="M1320 1760 c0 -5 5 -10 10 -10 6 0 10 5 10 10 0 6 -4 10 -10 10 -5 0
-10 -4 -10 -10z"/>
<path d="M2250 1755 c0 -12 19 -15 110 -15 91 0 110 3 110 15 0 12 -19 15
-110 15 -91 0 -110 -3 -110 -15z"/>
<path d="M2602 1730 c0 -19 2 -27 5 -17 2 9 2 25 0 35 -3 9 -5 1 -5 -18z"/>
<path d="M460 1685 c0 -14 5 -25 10 -25 6 0 10 11 10 25 0 14 -4 25 -10 25 -5
0 -10 -11 -10 -25z"/>
<path d="M2262 1658 c3 -22 8 -23 83 -23 75 0 80 1 83 23 3 21 1 22 -83 22
-84 0 -86 -1 -83 -22z"/>
<path d="M2602 1645 c0 -16 2 -22 5 -12 2 9 2 23 0 30 -3 6 -5 -1 -5 -18z"/>
<path d="M1262 1640 c-12 -5 -41 -29 -65 -53 -34 -36 -46 -58 -62 -118 -10
-41 -18 -83 -17 -93 1 -21 50 -76 67 -76 13 0 49 71 59 116 4 18 15 39 26 49
17 15 19 15 34 -7 29 -41 18 -80 -40 -130 -37 -33 -42 -62 -24 -129 7 -26 20
-41 42 -52 39 -19 52 -14 79 29 11 19 29 39 40 45 18 9 16 13 -23 43 -48 36
-49 46 -22 143 19 68 49 91 91 70 15 -8 39 -27 52 -41 45 -48 119 -28 147 40
8 18 14 35 14 37 0 3 -28 8 -62 11 -69 8 -107 25 -157 69 -60 52 -124 69 -179
47z m111 -32 c12 -6 40 -26 63 -44 51 -42 103 -64 150 -64 29 0 35 -3 30 -16
-3 -9 -6 -19 -6 -24 0 -14 -55 -21 -81 -10 -13 6 -39 22 -58 35 -43 32 -62 31
-101 -1 l-31 -27 -20 22 c-11 11 -26 21 -33 21 -22 0 -54 -43 -71 -95 -19 -55
-33 -69 -52 -53 -19 16 -16 80 8 142 37 101 130 153 202 114z m-38 -340 c14
-13 25 -29 25 -37 0 -18 -39 -61 -56 -61 -46 0 -62 102 -21 143 l22 22 3 -22
c2 -12 14 -32 27 -45z"/>
<path d="M460 1595 c0 -14 5 -25 10 -25 6 0 10 11 10 25 0 14 -4 25 -10 25 -5
0 -10 -11 -10 -25z"/>
<path d="M2110 1590 c0 -6 62 -10 166 -10 107 0 163 3 159 10 -4 6 -70 10
-166 10 -99 0 -159 -4 -159 -10z"/>
<path d="M2602 1555 c0 -16 2 -22 5 -12 2 9 2 23 0 30 -3 6 -5 -1 -5 -18z"/>
<path d="M2110 1540 c0 -6 60 -10 159 -10 96 0 162 4 166 10 4 7 -52 10 -159
10 -104 0 -166 -4 -166 -10z"/>
<path d="M460 1520 c0 -5 5 -10 10 -10 6 0 10 5 10 10 0 6 -4 10 -10 10 -5 0
-10 -4 -10 -10z"/>
<path d="M1890 1511 c-14 -28 -12 -67 4 -80 8 -7 32 -11 53 -9 37 3 38 4 41
47 4 50 -6 61 -55 61 -22 0 -36 -6 -43 -19z m81 -12 c8 -16 7 -38 -3 -54 -9
-15 -58 -11 -68 4 -9 15 -1 53 12 62 15 10 50 3 59 -12z"/>
<path d="M2473 1465 c0 -38 2 -53 4 -32 2 20 2 52 0 70 -2 17 -4 1 -4 -38z"/>
<path d="M2273 1493 c31 -2 83 -2 115 0 31 2 5 3 -58 3 -63 0 -89 -1 -57 -3z"/>
<path d="M2602 1465 c0 -16 2 -22 5 -12 2 9 2 23 0 30 -3 6 -5 -1 -5 -18z"/>
<path d="M1492 1390 c0 -14 2 -19 5 -12 2 6 2 18 0 25 -3 6 -5 1 -5 -13z"/>
<path d="M2602 1375 c0 -16 2 -22 5 -12 2 9 2 23 0 30 -3 6 -5 -1 -5 -18z"/>
<path d="M724 1350 c-110 -55 -134 -93 -134 -218 0 -61 -1 -64 -44 -106 -25
-24 -48 -55 -52 -70 -3 -15 1 -66 11 -115 13 -69 14 -93 5 -110 -6 -12 -8 -31
-5 -42 4 -12 9 -53 11 -92 2 -40 5 -81 7 -91 1 -10 -4 -21 -12 -24 -10 -3 -12
0 -8 12 4 10 -1 25 -12 37 -10 11 -30 67 -44 124 -16 64 -35 117 -50 137 -36
48 -81 143 -107 226 -34 109 -91 180 -185 231 l-40 22 40 -6 c22 -4 64 -18 93
-31 58 -25 78 -57 88 -137 9 -72 21 -91 80 -122 66 -34 76 -50 73 -113 -2 -50
40 -164 48 -130 3 10 -3 28 -11 40 -10 14 -16 44 -16 83 0 79 -14 103 -80 140
-54 30 -54 31 -67 95 -22 109 -38 135 -102 166 -70 33 -167 43 -196 20 -20
-16 -19 -17 23 -53 35 -32 44 -47 52 -92 12 -67 28 -92 75 -121 41 -26 49 -48
36 -113 -12 -68 -5 -85 48 -112 60 -30 66 -38 81 -107 8 -41 23 -73 51 -108
22 -28 44 -48 48 -45 11 6 36 -23 27 -32 -3 -4 -12 -1 -18 5 -22 22 -130 11
-123 -11 2 -7 11 -77 20 -157 8 -80 18 -162 21 -182 l6 -38 148 0 149 0 6 43
c3 23 14 110 24 194 l17 152 -20 5 c-12 3 -36 6 -53 6 -39 0 -39 3 -13 40 28
40 37 68 50 156 9 70 14 83 47 116 33 34 35 40 28 75 -5 21 -9 64 -9 95 0 50
4 62 37 104 30 38 35 52 29 73 -15 55 -8 106 21 141 58 69 3 91 -99 40z m76
-5 c0 -3 -16 -27 -35 -54 -71 -98 -98 -188 -110 -356 -9 -132 -23 -205 -51
-252 -14 -24 -31 -73 -39 -110 l-14 -68 3 61 c3 43 12 76 34 116 31 58 39 105
60 324 7 65 19 123 35 162 35 88 117 211 117 177z m-70 -30 c0 -2 -12 -25 -26
-50 -45 -82 -73 -169 -79 -251 -16 -227 -26 -279 -70 -349 l-26 -40 3 100 c1
55 -2 129 -8 164 -12 67 -9 75 59 144 25 25 34 54 36 112 1 70 7 92 31 122 25
32 80 65 80 48z m-530 -163 c24 -27 47 -69 61 -110 37 -113 75 -197 112 -250
24 -36 41 -78 55 -137 11 -47 30 -102 41 -121 25 -42 26 -54 5 -54 -8 0 -12 4
-9 10 3 5 -3 27 -15 49 -11 23 -27 72 -35 111 -15 72 -21 85 -79 176 -17 28
-49 101 -70 162 -43 126 -83 182 -160 223 -25 13 -46 28 -46 32 0 18 104 -50
140 -91z m568 72 c-3 -3 -2 -21 4 -40 8 -30 6 -39 -23 -78 -36 -51 -50 -111
-38 -164 14 -61 10 -86 -17 -106 l-26 -18 3 43 c1 24 5 48 8 54 3 5 4 25 2 45
-6 87 48 270 80 270 7 0 10 -3 7 -6z m-591 -98 c17 -18 39 -56 48 -82 59 -160
79 -205 115 -260 34 -53 78 -180 65 -192 -16 -17 -52 55 -56 115 -4 45 -16 59
-78 93 l-46 25 4 80 3 79 -56 50 c-50 45 -57 56 -63 100 -6 46 -5 48 14 38 11
-6 34 -27 50 -46z m450 -489 c-2 -18 -10 -44 -18 -58 l-14 -24 -3 25 c-4 21
24 90 35 90 3 0 3 -15 0 -33z m-51 -142 c-10 -8 -24 -11 -29 -8 -6 4 -2 10 9
14 31 12 40 9 20 -6z m107 -29 c-3 -4 -7 -22 -9 -40 -2 -17 -11 -85 -19 -151
-8 -65 -15 -124 -15 -131 0 -16 -249 -18 -255 -1 -7 20 -12 55 -25 177 -6 63
-15 124 -20 135 -7 20 -3 20 170 20 98 0 176 -4 173 -9z"/>
<path d="M1903 1373 c15 -2 39 -2 55 0 15 2 2 4 -28 4 -30 0 -43 -2 -27 -4z"/>
<path d="M2048 1373 c7 -3 16 -2 19 1 4 3 -2 6 -13 5 -11 0 -14 -3 -6 -6z"/>
<path d="M2088 1373 c7 -3 16 -2 19 1 4 3 -2 6 -13 5 -11 0 -14 -3 -6 -6z"/>
<path d="M2283 1373 c26 -2 67 -2 90 0 23 2 2 3 -48 3 -49 0 -68 -1 -42 -3z"/>
<path d="M2428 1373 c7 -3 16 -2 19 1 4 3 -2 6 -13 5 -11 0 -14 -3 -6 -6z"/>
<path d="M1476 1345 c-3 -8 -1 -15 4 -15 6 0 10 7 10 15 0 8 -2 15 -4 15 -2 0
-6 -7 -10 -15z"/>
<path d="M1086 1305 c-9 -26 -7 -32 5 -12 6 10 9 21 6 23 -2 3 -7 -2 -11 -11z"/>
<path d="M1460 1283 c-3 -23 -2 -39 3 -34 5 5 7 24 5 42 -3 33 -4 33 -8 -8z"/>
<path d="M2602 1285 c0 -16 2 -22 5 -12 2 9 2 23 0 30 -3 6 -5 -1 -5 -18z"/>
<path d="M993 1241 c-79 -57 -115 -131 -133 -273 -20 -164 -2 -402 35 -467 11
-18 43 -72 70 -119 48 -82 160 -212 184 -212 6 0 11 7 11 16 0 9 36 51 80 94
70 69 87 93 131 185 28 58 49 111 46 118 -2 6 -23 -28 -46 -77 -44 -96 -106
-185 -156 -226 -16 -14 -40 -35 -53 -48 -13 -12 -26 -22 -30 -22 -18 0 -182
221 -182 245 0 3 -14 28 -32 57 l-32 52 -2 187 c-2 198 10 310 41 372 21 45
69 95 102 108 27 10 53 -4 142 -80 49 -42 52 -48 49 -83 -2 -21 0 -38 4 -38 5
0 8 -5 8 -10 0 -6 10 -27 23 -48 13 -20 34 -64 47 -97 33 -84 49 -99 86 -85
26 10 31 9 51 -14 12 -15 25 -42 29 -61 3 -19 10 -35 15 -35 5 0 9 -4 9 -9 0
-4 -23 -11 -52 -14 -37 -5 -59 -14 -77 -31 -14 -14 -22 -29 -18 -32 4 -4 109
16 235 44 125 29 231 52 235 52 4 0 7 5 7 12 0 6 58 101 128 212 71 111 132
207 136 214 5 9 -5 12 -38 12 l-45 0 -122 -185 c-108 -165 -125 -186 -156
-194 -31 -9 -40 -7 -70 16 -18 14 -36 23 -39 20 -3 -3 7 -12 23 -20 36 -19 67
-53 59 -66 -4 -6 -14 -7 -23 -4 -10 4 -14 2 -9 -5 4 -7 -13 -10 -56 -10 -35 1
-75 -2 -90 -7 -25 -6 -28 -5 -28 17 0 13 -9 41 -20 63 -24 47 -24 42 -2 49 13
4 13 4 -3 3 -11 -1 -25 2 -32 6 -7 4 -28 1 -47 -7 l-35 -15 -12 37 c-6 20 -31
76 -56 125 -32 64 -42 94 -37 113 8 31 -20 63 -113 132 -34 25 -60 49 -57 54
13 20 -47 5 -83 -21z m1027 -141 c0 -5 -18 -38 -40 -72 -90 -144 -100 -161
-100 -169 0 -5 -4 -9 -10 -9 -5 0 -10 -7 -10 -16 0 -8 -3 -13 -8 -11 -4 3 -18
-17 -31 -44 -14 -27 -31 -49 -38 -49 -19 0 -16 -18 5 -22 9 -2 -4 -8 -30 -14
-26 -6 -45 -7 -42 -3 3 5 14 9 25 9 11 0 19 7 19 18 0 14 -2 15 -10 2 -7 -11
-10 -11 -10 -2 0 7 -5 10 -12 6 -7 -4 -8 -3 -4 4 4 7 15 12 25 12 15 0 167
216 237 338 18 31 34 42 34 22z m-410 -440 c-34 -11 -60 -11 -35 0 11 5 29 8
40 8 16 0 15 -2 -5 -8z m-123 -26 c-3 -3 -12 -4 -19 -1 -8 3 -5 6 6 6 11 1 17
-2 13 -5z m-67 -13 c-8 -5 -26 -12 -40 -15 -24 -7 -24 -6 -6 8 11 9 29 16 40
16 17 -1 18 -2 6 -9z"/>
<path d="M1438 1223 c7 -3 16 -2 19 1 4 3 -2 6 -13 5 -11 0 -14 -3 -6 -6z"/>
<path d="M488 1206 c-27 -20 -49 -82 -55 -156 -8 -99 11 -95 25 6 17 128 31
138 33 24 1 -85 3 -90 9 -45 5 28 9 71 9 97 1 26 6 50 11 53 7 4 8 -21 4 -77
-4 -46 -3 -80 1 -76 4 4 11 36 14 70 5 53 9 63 24 60 23 -4 22 13 -3 38 -23
23 -47 25 -72 6z"/>
<path d="M2602 1195 c0 -16 2 -22 5 -12 2 9 2 23 0 30 -3 6 -5 -1 -5 -18z"/>
<path d="M2602 1105 c0 -16 2 -22 5 -12 2 9 2 23 0 30 -3 6 -5 -1 -5 -18z"/>
<path d="M2601 1024 c0 -11 3 -14 6 -6 3 7 2 16 -1 19 -3 4 -6 -2 -5 -13z"/>
<path d="M1663 833 c52 -4 63 -19 20 -26 -26 -4 -26 -4 2 -3 20 1 30 6 30 16
0 11 -13 15 -50 16 l-50 1 48 -4z"/>
<path d="M482 805 c0 -16 2 -22 5 -12 2 9 2 23 0 30 -3 6 -5 -1 -5 -18z"/>
<path d="M1528 823 c7 -3 16 -2 19 1 4 3 -2 6 -13 5 -11 0 -14 -3 -6 -6z"/>
<path d="M1885 777 c-19 -15 -17 -15 21 -10 81 11 109 -4 446 -230 107 -71
186 -117 201 -117 43 0 52 -23 29 -72 -30 -64 -52 -81 -99 -74 -56 9 -68 14
-188 73 -60 30 -121 58 -135 63 -14 5 -64 24 -112 43 -57 23 -85 30 -81 21 3
-8 9 -15 14 -15 14 -2 22 -5 49 -16 14 -6 60 -25 102 -42 43 -17 119 -51 168
-76 80 -40 181 -75 217 -75 19 0 53 40 77 91 12 25 27 44 34 43 7 -1 8 0 2 3
-5 2 -10 11 -10 19 0 16 -39 34 -74 34 -20 0 -186 107 -377 243 -129 91 -239
127 -284 94z"/>
<path d="M1942 448 c-6 -14 -25 -34 -41 -44 -17 -10 -31 -22 -31 -26 0 -4 -6
-8 -12 -8 -13 -1 -114 -71 -152 -106 -59 -54 -148 -114 -183 -123 -55 -15
-196 -20 -245 -9 -23 5 -53 18 -69 28 -32 23 -46 26 -30 6 6 -8 35 -24 64 -36
46 -20 62 -22 152 -16 142 9 166 17 251 83 41 32 125 93 187 136 116 80 131
96 124 125 -3 13 -6 11 -15 -10z"/>
<path d="M2905 420 c-56 -21 -126 -25 -156 -9 -16 8 -26 6 -47 -8 -15 -10 -34
-21 -42 -25 -12 -5 -12 -7 3 -7 13 -1 17 -10 17 -38 0 -43 -5 -52 -40 -76 -13
-9 -19 -17 -13 -17 7 0 24 10 38 23 22 18 27 31 27 69 0 39 3 47 21 52 31 8
60 -23 52 -55 -13 -49 -86 -109 -134 -109 -11 0 -26 7 -35 15 -16 16 -46 20
-46 7 0 -13 30 -72 52 -104 29 -42 71 -38 144 13 33 22 89 60 125 84 79 53
119 108 119 165 0 47 -8 48 -85 20z m65 -26 c0 -47 -40 -88 -174 -178 -150
-100 -155 -101 -189 -39 l-18 33 28 -6 c57 -11 144 50 159 112 3 13 11 24 18
24 7 0 7 3 1 8 -27 20 -13 32 38 32 28 1 63 7 77 15 33 19 60 19 60 -1z"/>
<path d="M885 200 l-50 -7 50 -1 c28 -1 57 3 65 8 17 11 17 11 -65 0z"/>
<path d="M983 202 c-6 -4 10 -7 37 -7 26 0 46 3 43 8 -5 9 -64 9 -80 -1z"/>
<path d="M1692 205 c6 -7 53 -12 183 -19 74 -5 157 -11 278 -21 26 -2 47 0 47
5 0 4 -10 8 -22 7 -13 0 -57 3 -98 7 -179 17 -396 29 -388 21z"/>
<path d="M765 193 c-16 -3 -33 -8 -37 -11 -12 -12 46 -6 67 6 11 6 16 11 10
10 -5 0 -23 -3 -40 -5z"/>
<path d="M2213 164 c4 -4 34 -9 69 -11 34 -2 59 -1 56 2 -3 3 -34 8 -69 11
-34 2 -60 1 -56 -2z"/>
<path d="M2356 152 c-2 -4 12 -9 32 -10 41 -3 41 2 0 12 -15 3 -29 2 -32 -2z"/>
<path d="M2440 140 c8 -5 26 -9 40 -9 l25 1 -25 8 c-14 4 -32 8 -40 9 -13 1
-13 0 0 -9z"/>
<path d="M295 130 c-28 -7 -28 -8 -5 -9 14 0 32 4 40 9 17 11 8 11 -35 0z"/>
<path d="M2515 130 c3 -5 8 -10 11 -10 2 0 4 5 4 10 0 6 -5 10 -11 10 -5 0 -7
-4 -4 -10z"/>
<path d="M2548 123 c6 -2 18 -2 25 0 6 3 1 5 -13 5 -14 0 -19 -2 -12 -5z"/>
<path d="M165 103 c-27 -8 -57 -16 -65 -18 -8 -2 -15 -4 -15 -5 0 -1 -11 -3
-23 -6 -13 -2 -33 -10 -44 -18 -20 -14 -20 -14 2 -26 11 -6 26 -9 33 -6 7 2 4
5 -5 5 -62 3 62 54 186 78 11 2 22 6 25 8 9 9 -44 2 -94 -12z"/>
<path d="M1727 84 c-1 -1 -30 -5 -64 -9 -73 -8 -162 -30 -176 -44 -5 -5 8 -3
30 4 21 7 57 16 79 19 22 4 51 9 64 12 14 3 107 5 208 6 101 0 181 2 178 5 -5
5 -314 12 -319 7z"/>
<path d="M2590 74 c-36 -8 -114 -14 -175 -15 -88 -1 -102 -3 -70 -10 35 -7
174 -4 223 6 39 7 102 26 102 30 0 6 -1 6 -80 -11z"/>
<path d="M2060 69 c0 -5 5 -7 10 -4 6 3 10 8 10 11 0 2 -4 4 -10 4 -5 0 -10
-5 -10 -11z"/>
<path d="M2099 67 c5 -5 24 -7 42 -5 33 3 33 4 -8 8 -23 3 -39 2 -34 -3z"/>
<path d="M703 59 c-24 -3 -46 -9 -50 -14 -5 -4 5 -5 21 -1 34 8 216 9 296 1
30 -3 52 -3 49 0 -15 14 -239 25 -316 14z"/>
<path d="M2180 59 c0 -5 5 -7 10 -4 6 3 10 8 10 11 0 2 -4 4 -10 4 -5 0 -10
-5 -10 -11z"/>
<path d="M2240 59 c-34 -6 -33 -6 13 -8 46 -1 59 3 35 11 -7 2 -29 1 -48 -3z"/>
<path d="M553 39 c9 -5 32 -5 54 0 38 9 38 9 -16 9 -36 -1 -49 -4 -38 -9z"/>
<path d="M1036 41 c-4 -5 2 -9 11 -9 10 1 29 -2 43 -6 17 -5 20 -4 10 2 -27
17 -58 23 -64 13z"/>
<path d="M410 30 c-22 -5 -6 -6 40 -3 41 3 77 7 79 9 7 7 -83 2 -119 -6z"/>
<path d="M153 23 c37 -2 96 -2 130 0 34 2 4 3 -68 3 -72 0 -99 -1 -62 -3z"/>
<path d="M1155 20 c-3 -5 -1 -10 4 -10 6 0 11 5 11 10 0 6 -2 10 -4 10 -3 0
-8 -4 -11 -10z"/>
<path d="M1440 20 c0 -5 7 -7 15 -4 8 4 15 8 15 10 0 2 -7 4 -15 4 -8 0 -15
-4 -15 -10z"/>
<path d="M1188 13 c7 -3 16 -2 19 1 4 3 -2 6 -13 5 -11 0 -14 -3 -6 -6z"/>
<path d="M1408 13 c7 -3 16 -2 19 1 4 3 -2 6 -13 5 -11 0 -14 -3 -6 -6z"/>
</g>
</svg>
