<?xml version="1.0" standalone="no"?>
<!DOCTYPE svg PUBLIC "-//W3C//DTD SVG 20010904//EN"
 "http://www.w3.org/TR/2001/REC-SVG-20010904/DTD/svg10.dtd">
<svg version="1.0" xmlns="http://www.w3.org/2000/svg"
 width="300.000000pt" height="431.000000pt" viewBox="0 0 300.000000 431.000000"
 preserveAspectRatio="xMidYMid meet">
<metadata>
Created by potrace 1.10, written by Peter Selinger 2001-2011
</metadata>
<g transform="translate(0.000000,431.000000) scale(0.100000,-0.100000)"
fill="#000000" stroke="none">
<path d="M5 2155 c0 -1188 1 -1673 2 -1077 2 596 2 1568 0 2160 -1 592 -2 105
-2 -1083z"/>
<path d="M763 3983 c9 -2 25 -2 35 0 9 3 1 5 -18 5 -19 0 -27 -2 -17 -5z"/>
<path d="M1350 3980 c85 -8 102 -13 148 -47 42 -31 102 -121 95 -142 -4 -14
-3 -14 6 -1 8 11 11 5 17 -28 4 -23 11 -45 16 -48 13 -9 0 52 -20 91 -22 44
-71 106 -105 134 -42 35 -94 50 -167 49 l-65 -1 75 -7z"/>
<path d="M828 3973 c7 -3 16 -2 19 1 4 3 -2 6 -13 5 -11 0 -14 -3 -6 -6z"/>
<path d="M1036 3965 c-17 -18 -30 -20 -20 -3 5 8 -8 9 -52 3 -32 -4 -67 -8
-76 -8 -9 -1 -15 -4 -13 -7 2 -3 -33 -26 -78 -51 -86 -47 -141 -89 -158 -122
-8 -15 -8 -18 1 -12 8 5 11 3 8 -6 -3 -8 -11 -13 -17 -11 -7 1 -10 -2 -7 -7 3
-5 -1 -14 -9 -21 -8 -7 -13 -16 -10 -20 3 -5 -4 -6 -15 -3 -11 3 -20 0 -20 -6
0 -5 6 -8 14 -5 10 4 14 -1 13 -15 -1 -15 -6 -19 -19 -15 -10 3 -18 2 -18 -3
1 -13 34 -48 52 -56 15 -5 16 -4 6 13 -7 10 -16 16 -21 13 -5 -3 -7 0 -5 8 3
8 10 13 16 12 5 -1 8 7 5 17 -3 11 0 20 6 20 5 0 8 7 4 16 -4 10 1 17 16 21
11 3 18 10 15 15 -8 12 80 104 119 124 15 8 31 12 36 9 5 -2 11 2 15 10 7 20
89 20 106 0 7 -8 16 -12 21 -9 5 3 9 0 9 -7 0 -7 3 -9 6 -6 4 3 16 1 28 -5 11
-7 27 -13 35 -14 20 -4 -32 43 -55 49 -17 4 -16 5 3 6 30 1 74 -20 66 -32 -4
-6 0 -8 10 -4 9 3 19 2 22 -3 4 -6 -2 -10 -11 -10 -15 0 -16 -2 -2 -17 9 -10
21 -35 29 -55 7 -21 16 -38 19 -38 6 0 6 49 0 60 -1 3 -2 8 -1 13 0 4 -6 7
-14 7 -8 0 -15 5 -15 11 0 5 4 8 9 5 5 -4 8 2 6 11 -2 10 -4 21 -4 26 -1 4
-13 12 -27 17 -14 6 -22 15 -18 21 4 8 1 8 -13 1 -15 -8 -23 -5 -41 13 l-23
24 60 -3 c41 -2 68 -10 89 -25 35 -25 46 -27 39 -6 -4 8 -1 17 5 21 6 4 8 3 5
-3 -4 -7 11 -13 38 -17 25 -4 45 -12 45 -17 0 -6 14 -31 32 -55 29 -41 31 -47
18 -67 -12 -20 -12 -21 3 -9 13 11 16 10 20 -5 2 -10 2 -2 0 18 -3 27 0 38 11
42 23 9 20 24 -6 31 -19 5 -21 8 -8 16 8 5 10 10 5 10 -6 0 -16 -5 -21 -10 -8
-8 -15 -6 -24 5 -8 10 -9 15 -1 15 6 0 11 -5 11 -12 0 -6 3 -9 6 -5 6 6 -12
45 -18 39 -2 -2 -21 5 -43 14 -22 10 -56 18 -77 18 -20 1 -34 3 -32 5 3 3 -5
10 -17 17 -21 11 -20 11 9 10 16 0 28 -4 27 -7 -2 -3 9 -4 24 -1 25 3 51 -6
135 -46 5 -3 5 1 1 8 -5 8 -4 11 3 6 6 -4 9 -13 5 -21 -3 -11 2 -15 17 -15 17
0 21 -4 17 -20 -4 -16 0 -20 21 -20 20 0 23 -3 13 -9 -20 -13 -22 -38 -4 -45
7 -3 12 -2 9 3 -3 5 9 9 28 8 23 -1 32 -5 29 -14 -3 -7 -8 -11 -12 -9 -4 3 -7
-4 -7 -15 0 -19 1 -19 16 1 15 20 17 20 30 5 7 -9 13 -30 13 -48 0 -18 2 -26
5 -19 2 6 8 10 13 6 5 -3 9 2 9 10 0 8 -5 18 -11 22 -8 4 -7 9 2 15 10 6 11 9
2 9 -7 0 -13 7 -13 16 0 13 3 14 14 5 11 -9 15 -9 18 0 2 7 8 6 17 -5 12 -14
12 -16 -3 -10 -21 8 -20 -5 4 -36 21 -27 26 -45 10 -35 -5 3 -5 -7 1 -25 6
-16 15 -30 20 -30 5 0 9 -7 9 -15 0 -8 -5 -15 -11 -15 -6 0 -9 -7 -5 -15 3 -8
2 -15 -3 -15 -5 0 -11 -11 -13 -25 -3 -14 -1 -25 3 -25 5 0 9 7 9 15 0 8 5 15
10 15 14 0 13 -11 -5 -53 -13 -31 -13 -36 0 -41 8 -3 15 -12 15 -21 0 -12 4
-14 19 -6 10 6 21 17 24 25 4 11 0 13 -20 10 -18 -3 -24 -1 -20 8 3 7 13 30
22 51 12 28 12 37 3 31 -10 -5 -11 -4 0 7 6 7 12 20 12 29 -1 11 -6 9 -20 -9
-11 -13 -20 -20 -20 -16 0 9 36 55 41 52 2 -1 -2 3 -10 10 -11 10 -11 16 -2
26 8 11 6 22 -13 50 -13 19 -21 39 -18 43 4 5 -2 2 -12 -6 -18 -13 -19 -13
-14 1 9 25 -18 56 -55 64 -17 4 -35 12 -38 16 -9 15 -51 20 -46 6 2 -7 11 -11
20 -9 8 1 18 -2 21 -6 3 -5 -6 -9 -20 -9 -14 0 -28 7 -32 16 -3 9 -15 24 -27
33 -11 10 -15 17 -8 18 6 0 15 -4 18 -10 3 -5 11 -10 17 -10 6 0 -1 9 -16 21
-14 11 -30 17 -36 14 -6 -4 -9 -1 -8 6 2 8 -26 24 -72 40 -88 33 -208 40 -234
14z m-72 -38 l26 -23 -31 -2 c-18 -1 -41 1 -53 5 -20 6 -20 7 4 13 14 4 24 12
23 18 -4 17 0 15 31 -11z m365 -108 c-15 -9 -32 -2 -24 11 3 5 13 6 21 3 12
-4 13 -8 3 -14z m-649 -20 c-12 -16 -25 -28 -28 -25 -5 6 36 56 45 56 3 0 -5
-14 -17 -31z m800 17 c0 -3 -4 -8 -10 -11 -5 -3 -10 -1 -10 4 0 6 5 11 10 11
6 0 10 -2 10 -4z m101 -115 c-6 -10 -7 -21 -4 -25 3 -3 1 -6 -5 -6 -7 0 -12 3
-12 6 0 9 20 44 26 44 2 0 0 -8 -5 -19z"/>
<path d="M1069 3903 c-12 -16 -12 -17 2 -6 9 7 20 9 24 5 5 -4 5 -1 1 6 -9 16
-11 15 -27 -5z"/>
<path d="M1169 3895 c-1 -5 -1 -18 0 -27 2 -12 -3 -16 -13 -12 -8 3 -14 10
-13 16 1 6 -11 11 -28 13 -16 2 -24 1 -17 -2 6 -3 9 -10 6 -15 -4 -6 -3 -8 3
-5 11 7 53 -45 53 -64 0 -15 14 -2 16 14 0 7 2 20 2 30 1 10 6 16 12 12 5 -3
6 -13 3 -23 -4 -9 5 -4 19 13 18 20 23 32 15 37 -7 4 -16 3 -21 -2 -6 -6 -14
-3 -22 8 -8 9 -14 13 -15 7z"/>
<path d="M839 3862 c-14 -9 -24 -24 -22 -32 3 -9 -2 -8 -12 5 -21 26 -51 8
-48 -29 2 -23 -1 -25 -23 -20 -20 5 -24 3 -24 -17 0 -18 -3 -20 -9 -10 -5 7
-14 10 -20 7 -17 -11 -3 -26 24 -26 13 0 27 -4 30 -10 8 -14 42 -13 51 2 4 6
3 8 -3 5 -5 -3 -10 0 -10 7 0 11 5 12 24 3 l24 -11 -22 -17 -22 -17 34 -17
c19 -10 28 -20 21 -22 -6 -3 -10 -9 -6 -14 3 -5 0 -9 -6 -9 -6 0 -9 -4 -6 -9
3 -5 -1 -11 -9 -14 -9 -4 -12 -1 -9 7 3 8 0 17 -5 21 -6 3 -9 11 -6 16 3 5 0
6 -8 3 -8 -3 -18 -1 -22 5 -12 20 -33 12 -28 -9 3 -12 13 -20 22 -19 29 3 41
-1 41 -12 0 -6 -9 -9 -20 -6 -11 3 -20 1 -20 -4 0 -5 6 -9 13 -9 6 0 22 -3 34
-6 16 -4 23 0 28 15 4 12 11 18 17 15 8 -5 9 -1 5 10 -6 14 -3 17 9 12 14 -5
15 -4 5 8 -13 15 1 32 18 22 11 -7 8 21 -4 31 -4 4 -5 2 -1 -4 15 -26 -14 -12
-34 17 -23 32 -17 42 6 13 13 -17 14 -17 8 0 -8 21 14 23 42 2 23 -18 47 -19
41 -2 -2 6 -9 11 -15 10 -5 -1 -12 7 -15 17 -6 23 3 26 22 8 10 -11 12 -9 9 6
-2 11 -15 23 -31 27 -18 5 -25 4 -21 -3 4 -6 1 -8 -7 -6 -8 3 -13 11 -11 17 1
6 -7 11 -18 11 -11 0 -20 4 -20 9 0 5 16 5 38 -1 20 -6 52 -10 71 -10 18 0 28
-4 21 -8 -17 -11 -8 -43 13 -46 9 -1 15 2 11 7 -3 5 -10 7 -15 4 -5 -4 -9 1
-9 9 0 9 8 16 19 16 21 0 51 -25 51 -41 0 -6 5 -7 12 -3 6 4 8 3 4 -4 -3 -6
-2 -13 4 -17 13 -8 35 5 24 14 -5 3 -16 19 -24 36 -9 17 -24 30 -35 30 -32 2
-85 17 -91 26 -3 5 -17 10 -32 10 l-27 1 30 8 30 8 -30 1 c-16 0 -42 -7 -56
-17z m-24 -52 c14 0 25 -4 25 -9 0 -13 -50 -10 -51 3 0 6 -5 2 -10 -9 -9 -19
-9 -18 -5 3 2 12 0 22 -6 22 -5 0 -6 5 -2 11 5 8 10 6 16 -5 5 -9 20 -16 33
-16z m50 -31 c-4 -6 -9 -8 -12 -6 -2 3 -18 1 -34 -3 -16 -5 -29 -5 -29 0 0 8
20 13 68 19 7 0 10 -4 7 -10z m-108 -24 c0 -16 -22 -21 -32 -6 -3 5 3 12 12
14 10 3 18 5 19 6 0 0 1 -6 1 -14z m86 -49 c25 -19 3 -31 -23 -13 -11 8 -17
17 -13 20 9 10 15 8 36 -7z"/>
<path d="M1227 3778 c7 -59 13 -61 13 -5 0 26 -4 47 -9 47 -4 0 -6 -19 -4 -42z"/>
<path d="M1351 3774 c0 -11 3 -14 6 -6 3 7 2 16 -1 19 -3 4 -6 -2 -5 -13z"/>
<path d="M1007 3763 c4 -11 3 -14 -5 -9 -8 5 -9 1 -3 -15 4 -13 13 -24 20 -25
6 -1 7 0 1 3 -5 2 -10 11 -10 19 0 9 5 12 11 8 8 -4 8 0 0 15 -14 25 -23 28
-14 4z"/>
<path d="M950 3725 c0 -8 5 -15 10 -15 6 0 10 7 10 15 0 8 -4 15 -10 15 -5 0
-10 -7 -10 -15z"/>
<path d="M1075 3731 c-3 -5 -1 -12 5 -16 5 -3 10 1 10 9 0 18 -6 21 -15 7z"/>
<path d="M678 3723 c7 -3 16 -2 19 1 4 3 -2 6 -13 5 -11 0 -14 -3 -6 -6z"/>
<path d="M982 3705 c0 -16 2 -22 5 -12 2 9 2 23 0 30 -3 6 -5 -1 -5 -18z"/>
<path d="M1521 3714 c0 -11 3 -14 6 -6 3 7 2 16 -1 19 -3 4 -6 -2 -5 -13z"/>
<path d="M710 3716 c0 -2 7 -7 16 -10 8 -3 12 -2 9 4 -6 10 -25 14 -25 6z"/>
<path d="M1434 3700 c0 -13 4 -16 10 -10 7 7 7 13 0 20 -6 6 -10 3 -10 -10z"/>
<path d="M527 3692 c-10 -10 -17 -30 -17 -43 0 -14 -7 -34 -15 -47 -23 -31
-25 -52 -38 -267 -6 -100 4 -42 17 100 5 52 15 89 26 106 21 30 15 48 -7 21
-8 -9 -13 -12 -10 -7 2 6 7 18 11 29 5 15 9 16 22 5 14 -11 16 -10 13 13 -2
14 3 33 10 42 11 12 11 20 3 28 -8 8 -7 15 6 24 9 8 12 14 6 14 -6 0 -18 -8
-27 -18z"/>
<path d="M630 3701 c0 -5 7 -12 16 -15 8 -3 13 -10 9 -16 -6 -10 53 -45 63
-36 3 3 1 6 -4 6 -6 0 -19 7 -30 15 -18 14 -17 14 9 5 37 -13 35 2 -3 18 -17
8 -28 18 -24 23 3 5 -4 9 -15 9 -12 0 -21 -4 -21 -9z"/>
<path d="M693 3693 c9 -9 20 -13 24 -9 4 4 1 11 -7 16 -25 16 -35 11 -17 -7z"/>
<path d="M408 3669 c18 -19 30 -38 27 -40 -3 -3 3 -5 13 -4 19 1 63 24 47 25
-6 0 -16 -5 -22 -11 -8 -8 -23 0 -54 27 l-44 38 33 -35z"/>
<path d="M1485 3680 c3 -5 8 -10 11 -10 2 0 4 5 4 10 0 6 -5 10 -11 10 -5 0
-7 -4 -4 -10z"/>
<path d="M625 3671 c-3 -5 0 -13 6 -17 7 -4 9 -3 5 4 -3 5 0 13 6 15 9 4 10 6
1 6 -6 1 -14 -3 -18 -8z"/>
<path d="M659 3618 c16 -20 2 -24 -19 -5 -12 10 -12 9 0 -6 7 -10 19 -16 27
-13 12 5 18 -6 14 -28 -1 -5 11 -5 26 -2 36 9 42 9 78 2 l30 -6 -29 16 c-23
13 -34 14 -53 5 -23 -10 -29 -8 -57 22 -17 18 -25 25 -17 15z"/>
<path d="M540 3621 c0 -6 4 -13 10 -16 6 -3 7 1 4 9 -7 18 -14 21 -14 7z"/>
<path d="M398 3603 c-18 -21 -31 -43 -25 -43 2 0 13 14 25 30 25 33 24 41 0
13z"/>
<path d="M925 3610 c-4 -6 7 -10 26 -10 18 0 29 3 25 7 -11 11 -45 13 -51 3z"/>
<path d="M1010 3610 c0 -5 5 -10 10 -10 6 0 10 5 10 10 0 6 -4 10 -10 10 -5 0
-10 -4 -10 -10z"/>
<path d="M563 3587 c-7 -7 -18 -17 -25 -24 -26 -24 -36 -40 -43 -71 -4 -20 -3
-32 4 -32 6 0 8 6 5 14 -3 8 -1 17 5 20 6 4 8 -24 7 -76 -2 -46 0 -94 4 -108
6 -24 7 -23 13 9 4 20 3 39 -3 47 -8 8 -8 14 0 19 6 3 7 11 4 17 -4 6 -1 9 7
6 15 -5 20 -29 7 -38 -4 -3 -3 -12 2 -20 11 -17 21 -10 23 18 1 16 4 18 14 10
11 -9 11 -15 -2 -34 -18 -28 -19 -34 -4 -34 5 0 15 14 20 30 6 17 15 30 20 30
12 0 -14 -52 -34 -69 -12 -9 -18 -8 -31 4 -9 9 -16 12 -16 6 0 -20 25 -91 32
-91 7 0 14 -30 23 -90 2 -19 7 -53 10 -75 3 -22 10 -61 15 -87 6 -28 6 -75 1
-117 -5 -39 -5 -87 -1 -108 4 -21 10 -58 13 -83 18 -153 76 -301 148 -376 22
-22 36 -43 33 -47 -4 -4 -2 -7 5 -7 7 0 10 -4 7 -9 -8 -12 4 -42 14 -36 5 3 6
-4 3 -15 -3 -12 -1 -20 5 -18 13 4 51 -40 67 -78 7 -18 11 -50 8 -76 -4 -33 0
-55 17 -87 24 -47 38 -51 19 -5 -7 16 -12 32 -11 37 1 4 -2 7 -8 7 -5 0 -10
17 -10 38 l1 37 20 -55 c16 -46 24 -80 28 -122 1 -4 28 -26 61 -48 39 -27 60
-48 60 -60 0 -23 18 -25 69 -10 35 10 74 -1 52 -14 -6 -4 -11 -2 -11 4 0 7 -7
7 -22 -2 -13 -7 -36 -14 -53 -16 -35 -4 -57 -20 -49 -34 3 -5 13 -3 23 6 21
19 74 29 68 13 -2 -7 -9 -13 -15 -13 -7 -1 -15 -3 -19 -4 -5 -1 -11 -2 -14 -2
-3 1 -6 -5 -6 -12 0 -11 23 -15 35 -6 1 2 8 3 15 4 6 0 13 7 13 14 1 6 2 16 3
21 0 5 9 8 19 6 9 -1 16 -8 14 -15 -1 -6 2 -9 8 -5 6 3 8 10 5 15 -3 5 -1 12
5 15 8 5 8 11 0 20 -7 8 -9 18 -6 24 7 11 -70 3 -95 -10 -16 -8 -29 -3 -29 12
0 5 15 12 33 17 17 5 31 14 30 20 -3 13 44 28 54 18 4 -3 -3 -6 -15 -6 -12 0
-22 -4 -22 -10 0 -11 46 4 69 23 12 10 14 9 8 -5 -4 -10 -2 -18 4 -18 6 0 9
-6 6 -14 -3 -8 -1 -16 5 -18 8 -3 5 -39 -11 -123 -25 -137 -35 -162 -57 -144
-8 6 -14 8 -14 4 0 -4 -8 -1 -17 6 -16 12 -16 12 -6 -1 6 -8 12 -18 12 -22 1
-7 6 -10 14 -7 40 12 42 9 27 -72 -15 -87 -18 -112 -19 -157 -1 -27 -5 -41
-11 -37 -6 4 -8 10 -5 15 8 13 -21 6 -39 -9 -9 -8 -14 -16 -11 -19 3 -3 -1
-12 -8 -21 -11 -14 -10 -14 5 -3 10 8 16 19 15 25 -2 14 24 16 40 4 6 -4 9
-16 6 -25 -4 -10 -2 -14 3 -9 5 5 14 54 20 110 17 146 23 177 45 224 10 24 19
46 19 51 0 4 5 13 12 20 6 6 13 22 15 34 2 12 1 19 -3 16 -3 -3 -6 -13 -8 -21
-1 -8 -7 -21 -14 -29 -6 -8 -16 -25 -21 -39 -7 -18 -10 -20 -10 -6 -1 10 4 27
10 38 6 11 12 43 15 72 2 29 8 67 13 84 8 27 5 41 -17 85 -15 28 -38 59 -52
67 -24 15 -25 15 -10 -4 8 -11 21 -24 29 -29 20 -13 -7 -26 -33 -16 -27 9 -74
-18 -54 -32 8 -6 2 -7 -19 -3 -25 5 -32 3 -36 -12 -3 -12 -5 -9 -6 9 -1 22 7
30 45 48 25 13 48 30 52 39 6 18 67 88 240 280 63 70 120 138 127 152 13 25
17 51 31 209 l6 75 36 0 c39 0 39 -1 81 110 34 88 42 188 18 235 -18 35 -30
32 -71 -20 -44 -55 -48 -80 -5 -27 37 45 55 47 63 6 9 -49 7 -101 -4 -94 -5 3
-10 21 -10 40 0 19 -5 37 -11 41 -8 4 -9 -1 -4 -16 16 -49 10 -119 -13 -150
-24 -31 -27 -40 -14 -40 12 0 42 56 42 79 0 12 5 21 11 21 12 0 6 -24 -21 -85
-10 -22 -21 -50 -25 -61 -6 -21 -40 -38 -57 -28 -11 7 -10 82 2 105 7 13 7 19
0 19 -11 0 -14 49 -4 74 3 9 10 14 14 11 5 -3 7 3 5 12 -1 10 -8 17 -14 16 -6
-2 -11 11 -11 30 0 17 -3 43 -5 57 -3 15 -2 19 2 10 5 -8 15 -16 23 -18 8 -2
12 -1 8 3 -4 4 3 17 16 29 25 23 43 71 23 59 -8 -4 -7 -1 1 9 9 11 11 52 9
146 -1 72 -6 134 -9 138 -4 3 -4 12 -1 20 3 8 0 14 -5 14 -6 0 -9 9 -7 20 3
13 0 18 -7 14 -8 -5 -9 -1 -5 10 4 10 1 19 -9 23 -13 5 -13 7 -2 14 11 7 10
11 -3 24 -17 17 -44 12 -53 -11 -3 -8 -2 -12 4 -9 5 3 14 -3 19 -14 16 -29 14
-33 -11 -19 -28 16 -38 29 -32 40 3 4 -3 5 -13 1 -15 -5 -16 -3 -5 8 6 7 12
17 12 23 0 5 -7 1 -15 -10 -8 -11 -15 -14 -15 -6 0 17 -27 15 -27 -2 0 -8 3
-15 6 -14 19 2 28 -5 40 -33 8 -19 16 -27 21 -20 5 8 16 7 41 -3 28 -12 30
-15 12 -16 -13 0 -23 -5 -23 -11 0 -5 5 -7 12 -3 8 5 9 2 5 -10 -4 -10 1 -24
12 -35 16 -16 16 -19 2 -28 -13 -9 -14 -13 -3 -24 11 -12 12 -11 7 4 -5 11 -2
17 7 17 8 0 15 -6 15 -12 0 -7 4 -22 9 -33 7 -18 6 -18 -9 -6 -13 10 -17 11
-17 1 0 -7 8 -18 17 -25 15 -11 16 -16 4 -39 -8 -14 -17 -24 -20 -21 -4 2 -13
-1 -21 -7 -12 -8 -12 -9 2 -4 10 3 21 0 25 -7 11 -17 12 -119 1 -139 -13 -26
-29 -22 -22 6 4 18 1 26 -13 30 -11 4 -20 16 -21 31 -1 14 -2 36 -3 48 -1 13
-8 24 -16 24 -9 0 -11 -6 -7 -16 4 -9 8 -28 9 -43 2 -16 3 -35 4 -44 1 -10 7
-14 16 -10 11 4 15 -1 15 -19 0 -14 -5 -25 -11 -25 -5 0 -8 4 -4 9 3 5 1 12
-3 15 -10 6 -6 -54 8 -118 5 -22 7 -43 5 -46 -2 -4 -5 -49 -6 -101 0 -52 -6
-119 -12 -149 -6 -30 -9 -65 -8 -77 1 -13 -1 -23 -6 -23 -4 0 -9 -17 -10 -37
-1 -21 -9 -43 -18 -49 -12 -9 -13 -13 -3 -17 10 -4 9 -9 -5 -17 -9 -6 -15 -15
-12 -21 4 -5 0 -9 -7 -9 -17 0 -50 -54 -40 -65 4 -5 1 -5 -5 -1 -7 4 -13 2
-13 -4 0 -7 -6 -10 -13 -7 -7 3 -19 -5 -27 -16 -12 -20 -12 -21 4 -8 34 28 26
2 -11 -35 -21 -21 -26 -28 -12 -16 55 48 40 18 -26 -48 -37 -38 -73 -66 -78
-63 -6 3 -7 1 -3 -5 3 -6 -1 -18 -10 -27 -21 -21 -31 -11 -13 12 11 14 9 14
-9 -2 -13 -11 -19 -21 -13 -23 19 -6 12 -29 -17 -54 -15 -13 -33 -35 -41 -50
-8 -16 -34 -37 -58 -49 -23 -11 -43 -25 -43 -30 0 -5 -9 -9 -20 -9 -11 0 -19
3 -18 8 2 4 -1 9 -7 12 -34 18 -56 53 -71 116 -9 38 -24 82 -32 98 -16 33 -23
76 -12 76 9 0 25 -50 21 -64 -1 -5 5 -4 13 3 8 7 21 9 27 5 9 -5 7 -10 -7 -15
-13 -5 -6 -7 21 -6 22 0 49 -2 60 -6 11 -4 26 -2 34 2 12 8 12 12 2 25 -8 9
-19 16 -25 16 -6 0 -3 -7 8 -15 18 -13 18 -14 -2 -12 -11 0 -20 6 -19 12 1 5
-4 9 -12 7 -8 -2 -18 3 -24 10 -6 9 -7 8 -3 -5 4 -14 2 -17 -12 -15 -9 2 -16
10 -14 17 2 9 -4 12 -18 8 -21 -5 -21 -5 -4 14 21 23 29 59 13 59 -5 0 -7 -5
-3 -12 5 -8 1 -9 -12 -5 -18 7 -18 6 -1 -7 16 -12 16 -14 1 -20 -22 -9 -24 -8
-24 10 0 11 -6 15 -20 11 -27 -7 -25 11 3 24 22 9 22 9 0 5 -14 -2 -30 5 -43
19 -19 20 -20 24 -6 32 13 7 12 10 -7 22 -20 13 -21 13 -8 -2 7 -10 11 -18 7
-18 -3 -1 -9 -2 -13 -3 -5 -1 -15 -5 -23 -11 -13 -7 -13 -6 -2 7 7 8 10 22 7
30 -4 9 3 19 17 26 13 6 17 11 10 11 -7 1 -23 -4 -34 -10 -15 -8 -19 -8 -13 1
4 7 -1 13 -14 17 -11 3 -23 14 -26 24 -4 10 -11 19 -16 19 -10 0 -32 45 -34
67 0 6 -8 20 -18 30 -20 23 -49 112 -40 126 3 6 1 7 -5 3 -8 -5 -12 0 -12 13
0 11 8 22 18 24 13 4 13 5 1 6 -26 2 -37 94 -37 314 -1 157 -4 212 -14 225 -9
11 -10 14 0 8 6 -4 12 -2 12 3 0 6 -4 11 -10 11 -5 0 -7 17 -5 38 15 129 23
155 70 218 16 21 20 35 14 46 -6 11 -5 19 2 24 8 4 9 3 5 -4 -10 -17 4 -15 44
7 29 15 82 28 145 36 12 1 8 26 -7 40 -8 7 -9 5 -5 -7 8 -21 -3 -31 -17 -15
-7 9 -21 11 -41 6 -24 -5 -25 -7 -7 -8 12 0 22 -6 22 -12 0 -6 -9 -8 -20 -4
-11 4 -29 0 -42 -9 -28 -20 -50 -20 -24 -1 19 15 19 15 -2 15 -12 0 -21 -3
-21 -7 3 -21 -2 -32 -14 -27 -14 5 -112 -54 -103 -63 3 -3 1 -12 -5 -19 -7 -9
-6 -14 3 -20 7 -4 10 -4 6 1 -4 4 3 16 15 26 16 13 18 19 7 19 -9 0 -5 6 10
15 32 18 37 18 37 0 0 -9 -6 -14 -14 -11 -8 3 -12 2 -9 -3 3 -5 -4 -21 -15
-35 -15 -20 -28 -25 -47 -22 -15 2 -26 8 -25 14 2 7 -4 9 -15 5 -15 -6 -15 -4
-4 9 11 14 10 16 -6 11 -22 -5 -44 18 -23 25 8 3 9 8 2 15 -24 30 -5 104 24
93 10 -3 12 0 8 11 -5 13 -2 15 15 11 25 -7 30 7 6 16 -19 7 -16 8 -31 -7z
m1084 -279 c3 -18 1 -19 -13 -7 -10 8 -12 15 -5 17 6 2 8 9 4 15 -3 7 -2 9 2
4 5 -4 10 -17 12 -29z m-1036 -26 c-6 -11 -8 -22 -5 -24 2 -3 -2 -11 -11 -18
-13 -11 -15 -10 -9 6 10 32 27 64 31 60 3 -2 0 -13 -6 -24z m950 -959 c-12
-20 -14 -14 -5 12 4 9 9 14 11 11 3 -2 0 -13 -6 -23z m-30 -46 c-10 -9 -11 -8
-5 6 3 10 9 15 12 12 3 -3 0 -11 -7 -18z m-24 -12 c0 -8 -4 -12 -9 -9 -5 3 -6
10 -3 15 9 13 12 11 12 -6z m-632 -85 c3 -5 1 -10 -4 -10 -6 0 -11 5 -11 10 0
6 2 10 4 10 3 0 8 -4 11 -10z m17 -32 c-7 -7 -12 -8 -12 -2 0 14 12 26 19 19
2 -3 -1 -11 -7 -17z"/>
<path d="M913 3563 c10 -23 37 -32 37 -12 0 5 5 7 10 4 6 -3 10 0 10 8 0 9
-13 16 -34 19 -32 3 -33 3 -23 -19z"/>
<path d="M987 3569 c6 -23 9 -24 16 -5 3 8 0 17 -7 19 -10 4 -12 -1 -9 -14z"/>
<path d="M1079 3573 c-13 -16 -12 -17 4 -4 9 7 17 15 17 17 0 8 -8 3 -21 -13z"/>
<path d="M1025 3570 c3 -5 8 -10 11 -10 2 0 4 5 4 10 0 6 -5 10 -11 10 -5 0
-7 -4 -4 -10z"/>
<path d="M1105 3569 c-4 -6 -5 -12 -2 -15 2 -3 7 2 10 11 7 17 1 20 -8 4z"/>
<path d="M1669 3553 l-24 -28 28 24 c25 23 32 31 24 31 -2 0 -14 -12 -28 -27z"/>
<path d="M600 3550 c0 -5 7 -10 16 -10 8 0 12 5 9 10 -3 6 -10 10 -16 10 -5 0
-9 -4 -9 -10z"/>
<path d="M640 3545 c0 -17 9 -19 28 -6 11 7 10 10 -3 15 -23 9 -25 8 -25 -9z"/>
<path d="M1132 3540 c9 -13 14 -16 20 -7 4 6 2 15 -5 19 -21 14 -28 9 -15 -12z"/>
<path d="M1197 3549 c7 -7 15 -10 18 -7 3 3 -2 9 -12 12 -14 6 -15 5 -6 -5z"/>
<path d="M1243 3553 c19 -5 23 -28 7 -36 -6 -3 -5 -4 2 -3 7 1 14 12 16 24 3
17 -1 22 -20 21 -17 -1 -18 -3 -5 -6z"/>
<path d="M1280 3543 c0 -10 4 -14 8 -8 4 6 11 13 16 18 5 4 2 7 -7 7 -10 0
-17 -8 -17 -17z"/>
<path d="M685 3530 c-4 -6 1 -7 11 -3 13 5 15 3 9 -7 -5 -9 -4 -11 4 -6 6 4 9
12 6 17 -8 12 -22 12 -30 -1z"/>
<path d="M1308 3528 c-9 -5 -6 -8 10 -8 13 0 32 -5 42 -10 16 -8 18 -8 14 5
-3 8 -10 12 -15 9 -5 -3 -9 -1 -9 4 0 11 -25 11 -42 0z"/>
<path d="M540 3519 c-12 -9 -12 -10 4 -5 16 6 17 4 6 -9 -12 -14 -10 -16 11
-10 15 4 32 0 44 -10 19 -15 18 -16 -14 -9 -21 4 -31 2 -27 -4 12 -20 46 -20
69 0 12 11 17 17 11 14 -6 -3 -26 6 -44 19 -38 28 -40 29 -60 14z"/>
<path d="M605 3523 c21 -20 64 -33 71 -21 4 6 3 8 -4 4 -5 -3 -12 -2 -14 3 -1
5 -16 13 -33 17 -19 4 -26 3 -20 -3z"/>
<path d="M1388 3523 c7 -3 16 -2 19 1 4 3 -2 6 -13 5 -11 0 -14 -3 -6 -6z"/>
<path d="M430 3500 c-6 -11 -8 -20 -6 -20 3 0 10 9 16 20 6 11 8 20 6 20 -3 0
-10 -9 -16 -20z"/>
<path d="M1315 3471 c-3 -5 -1 -12 5 -16 5 -3 10 1 10 9 0 18 -6 21 -15 7z"/>
<path d="M1490 3470 c0 -6 7 -10 15 -10 8 0 15 2 15 4 0 2 -7 6 -15 10 -8 3
-15 1 -15 -4z"/>
<path d="M431 3434 c0 -11 3 -14 6 -6 3 7 2 16 -1 19 -3 4 -6 -2 -5 -13z"/>
<path d="M491 3415 c-1 -11 -4 -31 -6 -45 l-6 -25 11 25 c6 13 9 33 7 45 -4
19 -4 19 -6 0z"/>
<path d="M1570 3340 c0 -5 5 -10 11 -10 5 0 7 5 4 10 -3 6 -8 10 -11 10 -2 0
-4 -4 -4 -10z"/>
<path d="M472 3300 c0 -19 2 -27 5 -17 2 9 2 25 0 35 -3 9 -5 1 -5 -18z"/>
<path d="M1351 3314 c0 -11 3 -14 6 -6 3 7 2 16 -1 19 -3 4 -6 -2 -5 -13z"/>
<path d="M409 3293 l-24 -28 28 24 c25 23 32 31 24 31 -2 0 -14 -12 -28 -27z"/>
<path d="M1560 3301 c0 -6 4 -11 9 -11 4 0 8 -12 8 -27 0 -16 3 -37 8 -48 8
-20 8 -20 -9 0 -16 19 -16 19 -4 -8 8 -20 14 -24 20 -15 11 18 10 48 -2 48 -6
0 -8 10 -5 23 4 15 1 28 -9 36 -11 9 -16 10 -16 2z"/>
<path d="M359 3253 c-13 -16 -12 -17 4 -4 16 13 21 21 13 21 -2 0 -10 -8 -17
-17z"/>
<path d="M518 3240 c2 -16 6 -30 8 -30 2 0 4 14 4 30 0 17 -4 30 -8 30 -5 0
-7 -13 -4 -30z"/>
<path d="M1520 3173 c1 -12 40 -56 45 -51 3 3 -6 17 -20 32 -14 15 -25 23 -25
19z"/>
<path d="M1640 3159 c0 -5 5 -7 10 -4 6 3 10 8 10 11 0 2 -4 4 -10 4 -5 0 -10
-5 -10 -11z"/>
<path d="M1355 3139 l-40 -6 35 -3 35 -3 -40 -6 c-22 -4 -47 -10 -55 -15 -8
-4 -6 0 5 9 19 16 19 17 -15 10 -55 -10 -70 -16 -71 -26 -1 -5 -3 -13 -4 -19
-1 -5 -3 -13 -4 -17 -1 -5 -6 -1 -11 7 -8 13 -10 12 -10 -2 0 -10 1 -18 3 -18
12 1 101 31 123 43 16 8 38 12 49 10 11 -2 32 -4 46 -4 15 1 32 -6 39 -14 7
-8 19 -15 27 -15 8 0 11 -5 7 -12 -4 -7 -3 -8 4 -4 17 10 3 35 -28 51 -16 8
-34 20 -42 27 -8 9 -27 11 -53 7z m-105 -33 c0 -2 -7 -7 -16 -10 -8 -3 -12 -2
-9 4 6 10 25 14 25 6z"/>
<path d="M714 3112 c4 -7 1 -12 -8 -12 -18 0 -31 -22 -41 -67 -8 -37 9 -46 20
-10 4 12 7 25 6 30 -1 7 15 11 32 8 5 -1 6 3 3 8 -3 5 7 11 23 13 18 3 29 0
28 -6 -1 -6 5 -11 13 -12 8 0 22 -4 30 -7 30 -11 70 -14 70 -5 0 5 6 6 13 2 8
-5 7 -2 -2 10 -8 9 -20 15 -28 12 -8 -3 -11 -1 -8 4 3 6 -1 10 -9 10 -24 0
-30 1 -47 10 -8 5 -32 5 -52 0 -20 -4 -35 -4 -32 0 3 5 0 12 -6 16 -8 4 -9 3
-5 -4z"/>
<path d="M1129 3063 c-12 -14 -12 -16 0 -8 11 6 13 4 8 -9 -4 -9 -3 -15 2 -11
6 3 9 14 8 25 -2 24 -1 24 -18 3z"/>
<path d="M976 3053 c-6 -14 -5 -15 5 -6 7 7 10 15 7 18 -3 3 -9 -2 -12 -12z"/>
<path d="M1329 3020 c42 -10 111 -42 111 -52 0 -12 -7 -10 -50 12 -24 12 -59
20 -92 20 -38 0 -49 3 -38 10 10 7 11 10 2 10 -15 0 -89 -66 -82 -73 3 -3 23
-8 44 -12 28 -6 37 -5 32 4 -4 6 -19 11 -34 11 -24 0 -25 1 -10 17 21 20 108
26 108 7 0 -7 -5 -16 -12 -20 -6 -4 -8 -3 -4 4 3 6 2 13 -4 17 -5 3 -10 1 -10
-5 0 -8 -6 -8 -21 0 -19 11 -20 10 -9 -10 16 -30 74 -25 78 7 3 20 6 21 24 12
l21 -11 -24 -20 c-23 -19 -23 -19 -1 -8 12 6 30 10 40 9 36 -3 52 2 52 16 0
19 -94 65 -130 64 -21 -1 -19 -2 9 -9z"/>
<path d="M832 2979 c-50 -7 -102 -31 -102 -47 0 -10 70 -36 77 -28 3 3 -6 10
-21 15 -29 12 -34 26 -10 35 22 8 21 9 27 -15 8 -30 71 -24 75 8 3 20 6 21 28
11 l25 -12 -23 -13 -23 -12 28 -1 c31 0 36 19 10 42 -28 23 -35 25 -91 17z
m38 -23 c0 -3 -4 -8 -10 -11 -5 -3 -10 -1 -10 4 0 6 5 11 10 11 6 0 10 -2 10
-4z"/>
<path d="M732 2967 c-6 -7 -15 -24 -21 -38 -7 -20 -6 -26 5 -26 9 0 12 7 9 18
-4 11 2 26 14 38 12 12 17 21 12 21 -5 0 -13 -6 -19 -13z"/>
<path d="M948 2968 c17 -17 15 -38 -5 -60 -15 -17 -15 -18 0 -18 19 0 32 39
22 69 -3 12 -11 21 -18 21 -8 0 -8 -3 1 -12z"/>
<path d="M1082 2934 c10 -10 20 -16 22 -13 3 3 -5 11 -17 18 -21 13 -21 12 -5
-5z"/>
<path d="M1348 2913 c7 -3 16 -2 19 1 4 3 -2 6 -13 5 -11 0 -14 -3 -6 -6z"/>
<path d="M1355 2884 c-38 -12 -38 -12 -10 -13 17 0 37 3 45 9 24 15 7 17 -35
4z"/>
<path d="M788 2883 c7 -3 16 -2 19 1 4 3 -2 6 -13 5 -11 0 -14 -3 -6 -6z"/>
<path d="M830 2869 c-8 -5 -29 -9 -47 -9 -17 0 -34 -4 -37 -8 -5 -9 102 3 111
11 9 10 -14 15 -27 6z"/>
<path d="M1480 2860 c0 -5 5 -10 10 -10 6 0 10 5 10 10 0 6 -4 10 -10 10 -5 0
-10 -4 -10 -10z"/>
<path d="M700 2850 c-9 -6 -10 -10 -3 -10 6 0 15 5 18 10 8 12 4 12 -15 0z"/>
<path d="M1327 2845 c-11 -7 -25 -11 -33 -8 -8 3 -14 3 -14 0 0 -15 31 -13 56
4 16 10 25 19 19 19 -5 -1 -18 -7 -28 -15z"/>
<path d="M1441 2831 c-9 -6 -10 -11 -2 -15 6 -4 11 -2 11 4 0 7 7 9 16 6 8 -3
12 -2 9 4 -8 12 -16 12 -34 1z"/>
<path d="M1027 2819 c7 -7 15 -10 18 -7 3 3 -2 9 -12 12 -14 6 -15 5 -6 -5z"/>
<path d="M1341 2803 c7 -12 15 -20 18 -17 3 2 -3 12 -13 22 -17 16 -18 16 -5
-5z"/>
<path d="M1188 2757 c33 -34 43 -79 20 -93 -7 -4 -34 -8 -61 -8 -40 -1 -53 -6
-65 -24 -18 -28 -41 -28 -87 -1 -23 14 -44 19 -60 15 -18 -5 -27 -1 -35 13
-12 24 -4 49 27 79 13 12 21 27 17 33 -4 7 -15 2 -29 -15 -12 -14 -26 -22 -30
-18 -5 4 -5 1 -1 -6 5 -8 1 -21 -9 -32 -11 -12 -13 -20 -5 -25 5 -3 7 -11 4
-17 -4 -7 -2 -8 4 -4 7 4 12 1 12 -8 0 -13 46 -31 66 -24 5 2 28 -4 52 -11 41
-14 46 -13 95 12 29 15 54 22 55 17 5 -14 34 -12 53 3 37 28 31 88 -12 130
-33 32 -43 18 -11 -16z"/>
<path d="M1525 2730 c4 -6 11 -8 16 -5 14 9 11 15 -7 15 -8 0 -12 -5 -9 -10z"/>
<path d="M1650 2720 c-9 -6 -10 -10 -3 -10 6 0 15 5 18 10 8 12 4 12 -15 0z"/>
<path d="M931 2704 c0 -11 3 -14 6 -6 3 7 2 16 -1 19 -3 4 -6 -2 -5 -13z"/>
<path d="M956 2677 c3 -10 9 -15 12 -12 3 3 0 11 -7 18 -10 9 -11 8 -5 -6z"/>
<path d="M700 2661 c0 -6 4 -11 9 -11 5 0 12 -8 14 -17 4 -15 5 -15 6 -2 0 9
-6 22 -14 29 -10 9 -15 9 -15 1z"/>
<path d="M830 2636 c-5 -13 -14 -27 -19 -31 -6 -3 -11 -12 -11 -18 1 -17 40
32 40 50 0 8 5 11 10 8 6 -3 10 -1 10 4 0 20 -20 11 -30 -13z"/>
<path d="M1336 2601 c-4 -7 -5 -15 -2 -18 9 -9 19 4 14 18 -4 11 -6 11 -12 0z"/>
<path d="M925 2578 c-16 -5 -40 -9 -52 -9 -21 1 -36 -12 -39 -35 -3 -18 30
-11 45 10 11 14 15 15 22 5 7 -11 9 -10 9 4 0 9 5 17 11 17 5 0 8 -4 5 -9 -4
-5 3 -7 14 -4 11 3 23 10 26 15 3 5 11 2 17 -7 16 -21 97 -29 97 -9 0 16 -16
19 -25 4 -8 -13 -43 -3 -63 16 -15 16 -25 16 -67 2z"/>
<path d="M1110 2580 c0 -5 4 -10 9 -10 6 0 13 5 16 10 3 6 -1 10 -9 10 -9 0
-16 -4 -16 -10z"/>
<path d="M1146 2575 c-8 -23 22 -31 42 -11 10 9 12 16 5 16 -7 0 -15 -4 -18
-10 -10 -16 -25 -12 -19 5 4 8 4 15 1 15 -3 0 -8 -7 -11 -15z"/>
<path d="M734 2564 c3 -8 2 -12 -4 -9 -15 9 -12 -5 5 -21 13 -14 15 -12 15 15
0 17 -5 31 -11 31 -6 0 -8 -7 -5 -16z"/>
<path d="M1245 2559 c-4 -6 -4 -13 -1 -16 3 -4 6 -1 6 6 0 8 8 11 20 8 11 -3
20 -1 20 4 0 13 -37 11 -45 -2z"/>
<path d="M1415 2559 c-4 -6 -5 -12 -2 -15 2 -3 7 2 10 11 7 17 1 20 -8 4z"/>
<path d="M1000 2511 c0 -5 6 -12 13 -14 11 -5 -27 -11 -46 -8 -5 1 -5 -8 -2
-20 5 -16 3 -20 -6 -16 -8 2 -13 10 -11 16 1 6 -10 11 -25 11 -14 0 -35 7 -45
17 -10 9 -21 14 -24 11 -8 -8 19 -48 31 -46 21 3 64 -14 69 -28 7 -17 43 -19
48 -2 3 7 9 8 19 3 20 -13 39 -15 39 -4 0 6 15 7 35 3 30 -5 36 -3 46 20 12
25 29 35 29 17 0 -5 18 -5 42 1 24 5 51 7 60 5 11 -3 18 0 18 8 0 20 -19 28
-35 15 -8 -6 -19 -9 -25 -5 -5 3 -15 3 -22 -1 -6 -4 -41 -7 -77 -7 -55 0 -66
3 -65 17 1 9 -2 16 -7 16 -5 0 -9 -8 -9 -17 -1 -17 -1 -17 -11 0 -10 18 -39
24 -39 8z m70 -51 c0 -10 -37 -20 -45 -12 -4 4 -14 7 -22 7 -9 0 -18 5 -20 10
-2 6 15 9 42 7 25 -2 45 -8 45 -12z m68 8 c-5 -16 -58 -24 -58 -9 0 8 13 13
53 20 5 0 7 -5 5 -11z"/>
<path d="M1108 2513 c7 -3 16 -2 19 1 4 3 -2 6 -13 5 -11 0 -14 -3 -6 -6z"/>
<path d="M1320 2509 c0 -5 5 -7 10 -4 6 3 10 8 10 11 0 2 -4 4 -10 4 -5 0 -10
-5 -10 -11z"/>
<path d="M701 2500 c0 -8 4 -22 9 -30 12 -18 12 -2 0 25 -6 13 -9 15 -9 5z"/>
<path d="M1306 2455 c-3 -8 -1 -15 4 -15 6 0 10 7 10 15 0 8 -2 15 -4 15 -2 0
-6 -7 -10 -15z"/>
<path d="M845 2450 c3 -5 8 -10 11 -10 2 0 4 5 4 10 0 6 -5 10 -11 10 -5 0 -7
-4 -4 -10z"/>
<path d="M890 2440 c0 -5 5 -10 11 -10 5 0 7 5 4 10 -3 6 -8 10 -11 10 -2 0
-4 -4 -4 -10z"/>
<path d="M1214 2425 c-18 -14 -18 -14 4 -8 12 3 22 9 22 14 0 12 -3 11 -26 -6z"/>
<path d="M885 2401 c-3 -5 -2 -12 3 -15 5 -3 9 1 9 9 0 17 -3 19 -12 6z"/>
<path d="M1115 2359 c-49 -18 -101 -20 -155 -4 -23 6 -22 5 5 -12 38 -24 153
-22 172 4 7 8 19 13 27 10 10 -4 13 -1 9 9 -3 7 -6 13 -7 13 0 -1 -23 -10 -51
-20z"/>
<path d="M1015 2360 c3 -5 8 -10 11 -10 2 0 4 5 4 10 0 6 -5 10 -11 10 -5 0
-7 -4 -4 -10z"/>
<path d="M1607 2350 c20 -62 9 -122 -51 -265 -139 -335 -195 -527 -281 -965
-20 -102 -56 -274 -81 -384 -49 -219 -105 -488 -133 -638 -17 -92 -17 -98 -1
-98 11 0 21 14 30 43 15 47 66 154 98 207 28 44 29 65 2 25 -25 -36 -95 -180
-105 -213 -4 -13 -9 -22 -11 -19 -2 2 3 33 12 68 10 35 17 72 16 82 0 9 3 17
8 17 5 0 8 12 8 28 0 15 7 59 17 97 9 39 18 81 19 95 2 15 8 24 16 22 11 -3
11 0 1 12 -7 8 -9 21 -5 28 4 6 9 26 11 43 2 16 6 37 9 45 4 8 8 29 10 45 2
17 7 37 10 45 4 8 8 22 10 30 1 8 5 24 8 35 2 11 5 34 5 52 1 26 4 31 19 27
10 -4 13 -3 6 3 -6 4 -10 17 -9 28 4 48 17 105 23 105 4 0 8 12 8 28 2 39 10
94 17 112 3 8 8 29 11 45 3 17 12 64 21 105 8 41 17 85 19 96 2 12 8 30 13 40
5 11 11 37 12 58 1 22 4 43 7 48 3 4 7 16 9 25 21 103 80 295 87 287 4 -3 4 5
2 18 -3 13 9 0 30 -32 20 -30 34 -61 31 -67 -2 -7 0 -12 5 -10 5 1 16 -7 25
-18 22 -27 15 -12 -33 66 -55 90 -58 103 -30 130 13 12 17 18 9 14 -11 -6 -13
-4 -8 9 4 10 7 20 7 22 0 3 5 2 12 -2 7 -4 8 -3 4 4 -8 14 12 55 23 47 5 -3
12 2 15 11 3 8 2 12 -4 9 -6 -3 -10 -1 -10 4 0 6 5 11 11 11 5 0 8 4 4 9 -6
11 15 61 27 61 4 0 8 8 8 18 0 9 7 25 15 35 7 11 11 25 8 33 -3 8 2 25 10 38
9 13 13 33 10 45 -4 14 -1 21 7 19 18 -5 75 -60 72 -70 -1 -5 3 -6 9 -2 9 5
10 1 7 -14 -4 -13 -2 -20 4 -16 13 8 49 -26 41 -39 -3 -5 -1 -7 5 -3 6 3 13 2
17 -4 4 -6 10 -8 15 -5 5 3 16 -2 24 -11 9 -9 16 -11 16 -4 0 6 10 3 24 -7 13
-10 22 -21 19 -25 -2 -4 4 -5 13 -1 10 4 15 2 11 -4 -3 -5 3 -9 16 -8 12 1 24
-1 27 -4 9 -11 115 -59 145 -65 58 -13 87 -28 73 -38 -9 -7 -8 -8 5 -4 11 3
24 3 30 -1 7 -4 14 -8 17 -9 14 -3 48 -19 70 -34 14 -9 34 -19 45 -22 11 -3
29 -9 39 -14 14 -5 17 -4 11 5 -5 9 -2 12 11 8 11 -3 32 -8 47 -11 18 -4 25
-11 21 -19 -5 -9 -4 -9 6 0 11 10 17 9 32 -4 10 -9 18 -13 18 -9 0 4 13 -2 29
-13 15 -11 31 -18 34 -15 10 11 66 -36 61 -50 -3 -8 -1 -17 4 -20 6 -3 9 -14
7 -24 -13 -67 -14 -83 -3 -76 7 5 8 3 2 -7 -12 -20 -14 -40 -3 -33 5 3 10 -1
10 -8 1 -15 5 -31 8 -38 7 -15 12 -50 13 -87 0 -24 4 -40 9 -37 5 3 9 0 9 -5
0 -6 -5 -11 -12 -11 -6 0 -4 -6 7 -13 10 -8 15 -19 12 -24 -4 -6 0 -16 7 -22
9 -8 13 -26 11 -49 -1 -20 -1 -31 2 -24 8 21 23 13 23 -12 0 -14 4 -27 9 -31
5 -3 8 -16 5 -30 -2 -13 0 -26 5 -30 6 -3 7 -13 4 -22 -4 -10 -2 -14 4 -10 11
7 27 -46 27 -95 1 -14 4 -24 8 -22 5 3 9 -3 9 -13 1 -10 3 -29 5 -43 2 -14 6
-47 9 -75 3 -27 7 -65 9 -83 3 -17 2 -32 -2 -32 -8 0 -6 -100 2 -133 4 -16 2
-16 -11 -5 -14 12 -15 11 -5 -9 14 -25 16 -83 4 -83 -5 0 -6 -16 -3 -36 7 -44
2 -146 -8 -140 -4 3 -5 -10 -3 -29 2 -18 -1 -36 -7 -39 -6 -4 -11 -12 -11 -18
0 -7 5 -6 15 2 12 10 14 5 13 -38 -2 -43 -4 -49 -17 -39 -12 10 -13 9 -7 -2 5
-7 9 -53 8 -101 0 -80 9 -123 22 -109 10 10 31 503 31 729 0 258 -6 292 -86
522 -27 78 -56 180 -65 227 -9 48 -22 100 -29 117 -8 20 -11 56 -8 95 5 78 -8
107 -62 133 -61 29 -164 62 -220 71 -27 4 -80 22 -117 41 -37 19 -112 52 -167
73 -54 22 -147 63 -205 91 -58 27 -108 50 -111 50 -3 0 -34 30 -68 68 -146
156 -149 159 -140 132z"/>
<path d="M835 2307 c-10 -8 -14 -17 -9 -20 6 -3 15 3 22 14 14 23 12 24 -13 6z"/>
<path d="M1373 2304 c-10 -10 -10 -15 5 -23 15 -8 15 -14 5 -41 -7 -19 -8 -30
-2 -28 6 2 10 6 9 8 -1 3 3 17 9 33 7 18 7 27 0 27 -6 0 -8 4 -5 8 10 16 -9
30 -21 16z"/>
<path d="M1337 2290 c-3 -13 -2 -30 2 -38 6 -11 0 -22 -18 -38 -14 -13 -20
-24 -13 -24 6 0 12 5 12 11 0 5 5 7 10 4 6 -3 10 -1 10 5 0 6 4 9 9 6 5 -3 11
5 13 19 3 14 1 25 -4 25 -5 0 -7 3 -5 8 3 4 1 16 -3 26 -6 19 -7 18 -13 -4z"/>
<path d="M1215 2260 c3 -5 8 -10 11 -10 2 0 4 5 4 10 0 6 -5 10 -11 10 -5 0
-7 -4 -4 -10z"/>
<path d="M1156 2182 l34 -35 -22 -15 c-26 -18 -38 -33 -37 -47 0 -5 3 -4 6 3
2 6 9 12 14 12 6 0 7 -5 3 -12 -4 -7 -3 -8 4 -4 7 4 12 14 12 22 0 8 4 13 9
10 17 -11 21 27 5 45 -9 10 -14 22 -11 26 3 5 -7 14 -23 20 l-29 11 35 -36z"/>
<path d="M1228 2206 c-19 -14 -23 -26 -10 -26 4 0 13 9 20 20 14 23 13 24 -10
6z"/>
<path d="M1030 2200 c0 -5 5 -10 10 -10 6 0 10 5 10 10 0 6 -4 10 -10 10 -5 0
-10 -4 -10 -10z"/>
<path d="M1335 2184 c-11 -8 -18 -17 -15 -19 3 -2 -3 -13 -12 -24 -9 -11 -14
-22 -11 -25 7 -6 57 43 60 58 1 5 7 13 15 17 10 7 10 9 -2 9 -8 -1 -24 -7 -35
-16z"/>
<path d="M1034 2174 c-10 -8 -13 -13 -6 -9 6 3 12 1 12 -4 0 -6 4 -11 10 -11
5 0 7 7 4 15 -5 11 -2 13 12 8 12 -4 15 -3 10 5 -10 16 -18 15 -42 -4z"/>
<path d="M1095 2166 c0 -13 3 -22 8 -19 4 2 7 13 7 24 0 10 -3 19 -7 19 -5 0
-8 -11 -8 -24z"/>
<path d="M1275 2170 c-3 -11 -9 -19 -13 -19 -19 3 -23 -2 -12 -16 12 -14 6
-54 -7 -42 -7 8 -33 -11 -33 -24 0 -5 5 -9 10 -9 6 0 10 8 10 18 0 12 3 13 8
5 6 -10 13 -9 30 3 18 12 20 19 12 29 -13 15 -4 58 10 50 5 -3 11 -1 14 4 3 5
-1 11 -9 14 -8 4 -16 -2 -20 -13z"/>
<path d="M1136 2161 c-4 -7 -5 -15 -2 -18 9 -9 19 4 14 18 -4 11 -6 11 -12 0z"/>
<path d="M1491 2142 c-7 -16 -13 -36 -15 -43 -1 -8 -7 -23 -13 -34 -6 -11 -12
-24 -13 -30 -2 -5 -4 -14 -5 -20 -4 -11 -11 -45 -20 -90 -3 -16 4 -5 16 25 12
30 24 67 26 82 3 16 10 25 16 21 5 -3 7 -1 4 4 -4 6 0 32 8 59 16 54 14 69 -4
26z"/>
<path d="M1010 2129 c0 -11 4 -18 9 -14 6 3 14 -2 19 -11 6 -10 12 -12 16 -6
3 5 -1 12 -9 16 -8 3 -15 12 -15 21 0 8 -4 15 -10 15 -5 0 -10 -9 -10 -21z"/>
<path d="M1220 2136 c0 -2 8 -10 18 -17 15 -13 16 -12 3 4 -13 16 -21 21 -21
13z"/>
<path d="M1107 2123 c-10 -9 -9 -33 1 -33 4 0 8 9 9 20 2 21 0 24 -10 13z"/>
<path d="M1067 2101 c-3 -14 -1 -18 9 -14 16 6 18 19 5 27 -5 3 -11 -3 -14
-13z"/>
<path d="M1520 2109 c0 -5 5 -7 10 -4 6 3 10 8 10 11 0 2 -4 4 -10 4 -5 0 -10
-5 -10 -11z"/>
<path d="M1201 2102 c-1 -14 -61 -43 -73 -36 -5 3 -8 -1 -8 -9 0 -10 9 -13 32
-11 29 4 65 24 43 24 -6 0 -4 4 4 9 7 5 11 15 8 22 -4 11 -6 11 -6 1z"/>
<path d="M1824 2065 c8 -19 16 -56 17 -81 3 -50 19 -72 20 -27 0 15 2 38 5 51
2 12 0 22 -4 22 -4 0 -8 9 -9 20 -2 19 -25 50 -37 50 -4 0 0 -16 8 -35z"/>
<path d="M870 2030 c-66 -46 -165 -104 -260 -153 -172 -88 -264 -138 -278
-150 -37 -30 -56 -93 -64 -212 -5 -66 -13 -163 -18 -215 -4 -52 -14 -174 -20
-270 -6 -96 -19 -222 -30 -280 -25 -138 -29 -190 -18 -251 8 -45 6 -57 -21
-117 -20 -45 -37 -109 -51 -197 -11 -72 -23 -142 -26 -158 -4 -19 -2 -27 9
-27 10 0 17 16 21 48 3 26 12 59 20 73 9 17 10 32 4 42 -5 11 -5 24 2 36 5 11
10 33 10 49 0 31 19 92 46 150 12 26 14 51 9 117 -5 60 -3 105 8 157 8 40 21
102 28 138 6 36 16 73 21 84 7 12 7 16 0 13 -11 -8 -3 283 8 298 5 6 8 50 8
98 0 102 7 121 17 48 4 -28 10 -49 14 -46 4 2 4 28 0 57 -4 29 -8 100 -8 158
-1 91 2 112 22 149 17 35 31 47 67 61 25 9 74 35 110 58 35 23 71 40 78 37 8
-3 16 3 19 16 4 15 8 17 14 8 6 -10 14 -8 34 11 15 14 30 24 33 23 4 -1 36 17
72 40 81 52 81 52 74 33 -3 -9 -9 -14 -13 -12 -4 3 -8 -7 -9 -22 -2 -24 2 -21
29 21 35 52 46 56 29 11 -6 -16 -11 -62 -11 -103 0 -65 -3 -78 -29 -117 -39
-56 -39 -69 0 -15 30 40 53 47 49 13 -1 -10 0 -24 4 -32 10 -28 20 -75 18 -85
-2 -5 -5 -80 -7 -165 -7 -240 -12 -333 -19 -352 -4 -11 -3 -18 4 -18 7 0 8 -8
3 -22 -5 -13 -8 -44 -7 -70 0 -27 -2 -48 -5 -48 -3 0 -6 -24 -6 -53 -1 -28 -5
-81 -9 -117 -4 -36 -7 -74 -7 -84 1 -11 -3 -27 -9 -38 -6 -11 -6 -24 0 -36 6
-11 6 -24 0 -35 -7 -11 -7 -17 0 -17 6 0 10 -11 9 -25 -1 -14 -6 -25 -10 -25
-4 0 -8 -11 -8 -25 0 -14 -4 -25 -8 -25 -5 0 -7 -15 -6 -32 1 -18 -2 -39 -8
-45 -6 -7 -7 -13 -3 -13 4 0 1 -8 -6 -17 -8 -9 -9 -14 -4 -11 6 3 10 -6 11
-23 1 -15 -2 -27 -6 -24 -3 2 -4 -10 -2 -27 4 -23 2 -29 -8 -23 -9 5 -11 4 -6
-4 4 -6 11 -9 16 -6 4 3 10 -4 13 -15 3 -11 2 -22 -2 -25 -4 -2 -8 -21 -9 -42
-1 -21 -4 -64 -7 -96 -4 -34 -2 -57 4 -57 13 0 18 31 31 185 6 72 17 186 25
255 44 380 54 521 62 860 8 342 7 362 -18 445 -20 70 -21 76 -7 186 8 63 15
115 14 115 -1 1 -12 -6 -26 -16z"/>
<path d="M1180 1996 c7 -7 13 -7 20 0 6 6 3 10 -10 10 -13 0 -16 -4 -10 -10z"/>
<path d="M1801 1994 c0 -11 3 -14 6 -6 3 7 2 16 -1 19 -3 4 -6 -2 -5 -13z"/>
<path d="M1100 1971 c0 -6 4 -13 10 -16 6 -3 7 1 4 9 -7 18 -14 21 -14 7z"/>
<path d="M1788 1888 c-3 -24 -2 -47 2 -51 4 -4 8 15 9 43 2 61 -5 66 -11 8z"/>
<path d="M1393 1894 c-3 -8 -1 -20 4 -25 7 -7 12 -5 17 6 4 11 2 14 -6 9 -8
-5 -9 -2 -5 9 3 10 4 17 1 17 -2 0 -7 -7 -11 -16z"/>
<path d="M896 1856 c-9 -34 -7 -66 5 -66 6 0 9 6 6 14 -7 19 17 51 31 42 15
-9 15 -49 0 -154 -7 -57 -8 -86 -1 -93 7 -7 10 -3 8 13 -1 13 4 50 11 83 24
114 15 165 -33 177 -16 4 -23 0 -27 -16z"/>
<path d="M750 1825 c-7 -9 -11 -17 -9 -20 3 -2 10 5 17 15 14 24 10 26 -8 5z"/>
<path d="M995 1788 c3 -13 12 -29 22 -35 9 -7 14 -16 10 -19 -8 -8 17 -56 39
-74 9 -8 4 3 -10 25 -27 39 -21 60 10 35 8 -7 18 -9 22 -5 4 4 1 10 -5 12 -7
3 -13 12 -13 20 0 10 -6 13 -16 9 -8 -3 -13 -2 -9 3 3 5 -8 19 -24 31 l-30 21
4 -23z m40 -18 c3 -5 -1 -10 -10 -10 -9 0 -13 5 -10 10 3 6 8 10 10 10 2 0 7
-4 10 -10z"/>
<path d="M2162 1776 c7 -8 15 -12 17 -11 5 6 -10 25 -20 25 -5 0 -4 -6 3 -14z"/>
<path d="M921 1764 c0 -11 3 -14 6 -6 3 7 2 16 -1 19 -3 4 -6 -2 -5 -13z"/>
<path d="M1317 1759 c6 -23 9 -24 16 -5 3 8 0 17 -7 19 -10 4 -12 -1 -9 -14z"/>
<path d="M1782 1743 c-2 -45 1 -48 33 -32 19 9 19 9 -2 5 -19 -3 -22 1 -26 33
-4 36 -4 36 -5 -6z"/>
<path d="M660 1752 c0 -8 9 -16 20 -19 11 -3 20 -8 20 -12 0 -7 65 -41 78 -41
4 0 -11 11 -33 24 -22 12 -39 28 -38 34 2 7 -4 9 -13 5 -9 -3 -20 0 -25 8 -7
11 -9 11 -9 1z"/>
<path d="M1260 1739 c0 -5 5 -7 10 -4 6 3 10 8 10 11 0 2 -4 4 -10 4 -5 0 -10
-5 -10 -11z"/>
<path d="M1853 1723 c9 -2 23 -2 30 0 6 3 -1 5 -18 5 -16 0 -22 -2 -12 -5z"/>
<path d="M1345 1710 c-3 -5 1 -10 9 -10 9 0 16 5 16 10 0 6 -4 10 -9 10 -6 0
-13 -4 -16 -10z"/>
<path d="M1580 1710 c0 -5 5 -10 11 -10 5 0 7 5 4 10 -3 6 -8 10 -11 10 -2 0
-4 -4 -4 -10z"/>
<path d="M1816 1589 c-33 -68 -86 -180 -119 -249 -33 -69 -84 -179 -114 -245
-30 -66 -76 -160 -102 -210 -56 -104 -114 -236 -106 -243 2 -3 8 4 11 14 14
37 75 170 95 204 11 19 39 73 61 120 22 47 44 88 50 91 5 3 9 9 8 13 0 3 9 28
20 54 12 26 31 70 42 97 12 28 26 55 32 60 6 6 11 15 12 20 0 12 35 88 115
253 33 68 59 128 57 134 -2 5 -30 -45 -62 -113z"/>
<path d="M1660 1684 l-75 -13 74 5 c67 5 150 24 96 22 -11 0 -54 -7 -95 -14z"/>
<path d="M1010 1673 c0 -5 7 -18 15 -29 8 -12 12 -23 10 -26 -3 -3 4 -13 15
-23 20 -18 20 -17 20 8 0 18 -5 27 -16 27 -8 0 -12 5 -9 10 3 6 1 10 -4 10 -6
0 -10 5 -8 11 1 6 -4 14 -10 16 -7 3 -13 1 -13 -4z"/>
<path d="M988 1644 c4 -20 2 -25 -8 -19 -9 6 -11 4 -6 -4 5 -7 11 -10 14 -7 3
4 18 -15 33 -40 25 -43 27 -63 12 -104 -11 -29 -12 -42 -2 -64 7 -17 9 -14 6
17 -2 20 0 37 4 37 3 0 9 17 12 37 5 29 0 47 -23 89 -17 28 -30 59 -30 68 0 9
-4 16 -9 16 -4 0 -6 -12 -3 -26z"/>
<path d="M1353 1642 c0 -12 5 -22 9 -22 11 0 10 12 -2 30 -7 12 -9 10 -7 -8z"/>
<path d="M588 1617 c-3 -19 -2 -25 4 -19 6 6 8 18 6 28 -3 14 -5 12 -10 -9z"/>
<path d="M1231 1617 c-1 -10 -5 -16 -9 -13 -5 3 -9 -2 -9 -10 0 -13 2 -13 15
0 8 8 12 20 9 28 -4 9 -6 7 -6 -5z"/>
<path d="M2391 1601 c-8 -5 -9 -11 -3 -15 5 -3 12 1 16 9 6 17 6 18 -13 6z"/>
<path d="M932 1515 c0 -16 2 -22 5 -12 2 9 2 23 0 30 -3 6 -5 -1 -5 -18z"/>
<path d="M1329 1538 c-4 -12 -5 -57 0 -53 6 6 10 55 4 55 -1 0 -3 -1 -4 -2z"/>
<path d="M2332 1473 c-22 -49 -54 -174 -47 -181 2 -3 7 9 10 24 13 56 47 159
61 182 8 12 11 22 6 22 -5 0 -18 -21 -30 -47z"/>
<path d="M1121 1496 c2 -2 14 -9 26 -15 18 -9 22 -9 18 2 -3 7 -15 13 -26 14
-12 1 -20 1 -18 -1z"/>
<path d="M933 1440 c0 -25 2 -35 4 -22 2 12 2 32 0 45 -2 12 -4 2 -4 -23z"/>
<path d="M1101 1448 c-6 -17 -9 -33 -7 -35 7 -7 -36 -53 -44 -48 -4 2 -7 -3
-7 -11 0 -10 12 -4 33 17 18 18 31 36 28 40 -2 4 0 10 6 14 6 4 8 11 4 16 -3
5 0 16 6 24 8 9 8 15 2 15 -5 0 -15 -14 -21 -32z"/>
<path d="M1069 1458 c-5 -19 -8 -50 -4 -46 7 7 15 48 9 48 -2 0 -4 -1 -5 -2z"/>
<path d="M1132 1438 c2 -12 11 -22 23 -24 19 -3 19 -2 3 10 -19 14 -25 32 -8
21 6 -3 10 -1 10 4 0 6 -7 11 -16 11 -10 0 -14 -7 -12 -22z"/>
<path d="M1311 1424 c0 -11 3 -14 6 -6 3 7 2 16 -1 19 -3 4 -6 -2 -5 -13z"/>
<path d="M1301 1384 c0 -11 3 -14 6 -6 3 7 2 16 -1 19 -3 4 -6 -2 -5 -13z"/>
<path d="M1017 1372 c2 -11 -2 -26 -11 -34 -8 -9 -12 -18 -9 -22 8 -8 32 25
33 46 0 9 -4 19 -9 22 -5 4 -7 -2 -4 -12z"/>
<path d="M1470 1338 c25 -24 47 -44 48 -42 6 5 -32 53 -42 54 -5 0 -19 8 -30
17 -12 9 -1 -4 24 -29z"/>
<path d="M1421 1353 c20 -24 61 -63 67 -63 4 0 -12 18 -33 40 -40 41 -58 53
-34 23z"/>
<path d="M1181 1316 c-9 -11 -9 -16 1 -22 7 -4 10 -4 6 1 -4 4 -3 14 3 22 6 7
9 13 6 13 -2 0 -10 -6 -16 -14z"/>
<path d="M1282 1325 c4 -4 2 -17 -4 -29 -7 -11 -13 -31 -13 -44 -2 -20 2 -28
4 -9 0 4 7 23 15 42 11 26 12 36 3 41 -7 4 -9 4 -5 -1z"/>
<path d="M974 1289 c0 -10 4 -19 8 -19 4 0 8 6 8 14 0 8 -4 17 -8 20 -4 2 -8
-4 -8 -15z"/>
<path d="M1103 1277 c-18 -22 -18 -22 3 -4 19 16 23 16 34 2 7 -8 17 -12 22
-9 6 4 6 10 -1 17 -18 18 -39 16 -58 -6z"/>
<path d="M2275 1265 c-3 -8 -7 -22 -10 -31 -3 -8 -1 -13 4 -10 5 3 11 17 13
31 6 27 0 34 -7 10z"/>
<path d="M567 1263 c-2 -5 -1 -19 4 -33 7 -23 7 -23 8 8 1 31 -3 40 -12 25z"/>
<path d="M1009 1252 c-2 -22 -5 -40 -9 -44 -6 -8 -6 -49 0 -59 4 -6 10 17 14
51 4 34 5 65 2 68 -3 3 -7 -4 -7 -16z"/>
<path d="M956 1238 c3 -5 10 -6 15 -3 13 9 11 12 -6 12 -8 0 -12 -4 -9 -9z"/>
<path d="M1050 1215 c0 -2 6 -8 13 -14 10 -8 14 -7 14 2 0 8 -6 14 -14 14 -7
0 -13 -1 -13 -2z"/>
<path d="M320 1150 c0 -10 9 -42 20 -70 11 -28 20 -62 20 -75 0 -13 5 -27 10
-30 6 -3 10 -17 10 -30 0 -29 18 -80 26 -72 3 3 -5 45 -19 94 -14 48 -33 114
-42 146 -16 59 -25 72 -25 37z"/>
<path d="M971 1136 c-8 -10 -9 -16 -1 -21 5 -3 10 -5 11 -3 4 18 7 38 4 38 -1
0 -8 -6 -14 -14z"/>
<path d="M1198 1120 c-3 -17 -2 -33 2 -35 3 -2 7 12 8 31 3 42 -4 45 -10 4z"/>
<path d="M989 1103 c-1 -5 -2 -27 -3 -51 -1 -25 -8 -47 -17 -53 -9 -5 -10 -9
-2 -9 6 0 15 6 20 13 9 15 17 107 9 107 -3 0 -7 -3 -7 -7z"/>
<path d="M1055 1101 c-3 -5 -2 -12 3 -15 5 -3 9 1 9 9 0 17 -3 19 -12 6z"/>
<path d="M1163 1093 c7 -12 -16 -36 -26 -27 -3 3 -4 -2 -2 -13 2 -10 4 -20 4
-22 1 -3 6 0 12 6 14 14 34 -2 42 -33 2 -10 5 1 5 26 0 25 -2 37 -5 27 -4 -14
-8 -16 -19 -6 -10 8 -11 15 -4 24 8 10 8 15 -1 21 -7 4 -9 3 -6 -3z"/>
<path d="M596 1028 c-6 -18 -4 -49 2 -43 7 7 12 55 6 55 -3 0 -6 -6 -8 -12z"/>
<path d="M1138 1013 c7 -3 16 -2 19 1 4 3 -2 6 -13 5 -11 0 -14 -3 -6 -6z"/>
<path d="M1016 1002 c-3 -5 1 -9 9 -9 8 0 12 4 9 9 -3 4 -7 8 -9 8 -2 0 -6 -4
-9 -8z"/>
<path d="M1123 981 c-10 -16 -9 -19 4 -17 9 2 17 10 19 19 3 23 -8 21 -23 -2z"/>
<path d="M979 965 c-3 -35 -6 -40 -19 -37 -10 3 -9 -3 4 -17 11 -12 20 -21 21
-21 1 0 2 20 4 45 1 25 -1 45 -4 45 -3 0 -6 -7 -6 -15z"/>
<path d="M1185 968 c-5 -15 -14 -135 -15 -191 0 -28 -3 -36 -12 -30 -21 12
-55 11 -55 -3 0 -7 4 -11 8 -8 4 2 12 -4 18 -13 9 -17 10 -17 16 -1 4 9 13 14
21 11 11 -4 14 5 14 38 1 61 10 181 15 197 2 6 2 12 -1 12 -2 0 -7 -6 -9 -12z
m-35 -224 c0 -8 -19 -13 -24 -6 -3 5 1 9 9 9 8 0 15 -2 15 -3z"/>
<path d="M592 940 c0 -19 2 -27 5 -17 2 9 2 25 0 35 -3 9 -5 1 -5 -18z"/>
<path d="M1080 940 c-13 -8 -12 -10 3 -10 9 0 17 5 17 10 0 12 -1 12 -20 0z"/>
<path d="M1960 939 c0 -5 9 -9 20 -9 11 0 20 2 20 4 0 2 -9 6 -20 9 -11 3 -20
1 -20 -4z"/>
<path d="M1119 933 c-2 -5 -6 -22 -8 -31 0 -4 -13 -7 -28 -6 -21 1 -27 6 -25
19 2 11 -2 15 -10 13 -7 -3 -15 -13 -17 -24 -2 -10 0 -16 5 -11 4 4 18 -3 31
-15 13 -12 23 -16 23 -10 0 7 6 12 14 12 7 0 16 10 19 22 5 19 8 20 24 7 16
-12 17 -12 6 2 -7 9 -11 18 -8 21 3 2 -2 5 -10 5 -8 0 -16 -2 -16 -4z"/>
<path d="M1764 909 c-13 -5 -3 -8 29 -8 26 -1 47 1 47 3 0 8 -58 12 -76 5z"/>
<path d="M1858 913 c6 -2 18 -2 25 0 6 3 1 5 -13 5 -14 0 -19 -2 -12 -5z"/>
<path d="M1587 903 c18 -2 50 -2 70 0 21 2 7 4 -32 4 -38 0 -55 -2 -38 -4z"/>
<path d="M1708 903 c7 -3 16 -2 19 1 4 3 -2 6 -13 5 -11 0 -14 -3 -6 -6z"/>
<path d="M590 871 c0 -6 4 -13 10 -16 6 -3 7 1 4 9 -7 18 -14 21 -14 7z"/>
<path d="M974 866 c-3 -8 -4 -23 -2 -33 3 -11 6 -6 9 15 6 34 2 42 -7 18z"/>
<path d="M413 803 c1 -33 5 -56 9 -50 7 11 13 -29 9 -60 -1 -6 3 -14 9 -18 5
-3 10 -21 10 -40 0 -19 5 -37 10 -40 6 -3 10 -17 10 -31 0 -13 9 -61 21 -105
11 -45 19 -89 16 -100 -3 -10 -2 -21 2 -24 10 -6 30 -160 33 -257 2 -43 6 -78
9 -78 3 0 9 26 12 58 8 72 -26 276 -94 572 -27 118 -51 220 -53 225 -3 6 -4
-18 -3 -52z"/>
<path d="M1000 845 c-9 -10 -7 -13 7 -10 10 1 27 -5 38 -14 15 -12 17 -12 8
-1 -6 8 -11 19 -10 24 3 15 -31 15 -43 1z"/>
<path d="M1115 851 c-6 -10 11 -24 33 -27 10 -2 8 3 -4 17 -20 22 -21 22 -29
10z"/>
<path d="M592 820 c0 -14 2 -19 5 -12 2 6 2 18 0 25 -3 6 -5 1 -5 -13z"/>
<path d="M1133 793 c0 -9 4 -10 14 -2 7 6 13 12 13 14 0 1 -6 2 -13 2 -8 0
-14 -6 -14 -14z"/>
<path d="M952 789 c2 -8 -3 -13 -10 -11 -8 1 -11 -2 -8 -7 6 -9 31 -9 41 1 3
3 -2 11 -10 18 -13 11 -16 11 -13 -1z"/>
<path d="M1040 785 c-7 -8 -17 -12 -23 -8 -6 3 -7 1 -3 -6 6 -8 12 -9 20 -2 7
6 15 9 18 6 2 -3 5 2 5 10 0 19 -2 19 -17 0z"/>
<path d="M1101 784 c0 -11 3 -14 6 -6 3 7 2 16 -1 19 -3 4 -6 -2 -5 -13z"/>
<path d="M590 781 c0 -6 4 -12 8 -15 5 -3 9 1 9 9 0 8 -4 15 -9 15 -4 0 -8 -4
-8 -9z"/>
<path d="M241 744 c0 -11 3 -14 6 -6 3 7 2 16 -1 19 -3 4 -6 -2 -5 -13z"/>
<path d="M1049 743 c-13 -16 -12 -17 4 -4 9 7 17 15 17 17 0 8 -8 3 -21 -13z"/>
<path d="M592 725 c0 -16 2 -22 5 -12 2 9 2 23 0 30 -3 6 -5 -1 -5 -18z"/>
<path d="M1570 746 c0 -2 7 -7 16 -10 8 -3 12 -2 9 4 -6 10 -25 14 -25 6z"/>
<path d="M533 701 c0 -11 5 -18 9 -15 4 3 5 11 1 19 -7 21 -12 19 -10 -4z"/>
<path d="M917 682 c-14 -15 -14 -19 -3 -19 8 0 14 5 13 11 -1 6 4 10 11 8 8
-1 11 2 7 8 -8 13 -9 13 -28 -8z"/>
<path d="M1096 679 c2 -4 -2 -9 -8 -12 -10 -3 -10 -8 1 -18 9 -9 11 -10 7 -1
-4 7 -1 15 8 18 20 8 21 21 1 21 -8 0 -12 -4 -9 -8z"/>
<path d="M946 628 c3 -5 10 -6 15 -3 13 9 11 12 -6 12 -8 0 -12 -4 -9 -9z"/>
<path d="M1115 631 c-3 -6 -14 -8 -24 -6 -10 2 -18 -2 -18 -9 0 -7 11 -12 23
-12 12 0 22 5 21 11 -1 5 4 9 11 7 8 -1 11 2 7 8 -8 12 -12 13 -20 1z"/>
<path d="M986 617 c3 -10 9 -15 12 -12 3 3 0 11 -7 18 -10 9 -11 8 -5 -6z"/>
<path d="M909 616 c0 -1 -2 -9 -4 -19 -3 -14 0 -16 9 -8 7 6 15 9 18 6 2 -3 5
1 5 8 0 10 -21 20 -28 13z"/>
<path d="M1043 613 c4 -3 1 -13 -6 -22 -11 -14 -10 -14 5 -2 16 12 16 31 1 31
-4 0 -3 -3 0 -7z"/>
<path d="M601 574 c0 -11 3 -14 6 -6 3 7 2 16 -1 19 -3 4 -6 -2 -5 -13z"/>
<path d="M925 570 c-3 -6 0 -13 8 -16 22 -8 9 -53 -14 -49 -18 4 -32 -8 -35
-31 -1 -6 8 -11 20 -10 19 1 21 -4 20 -61 -1 -35 3 -63 7 -63 5 0 7 14 5 30
-2 17 0 33 5 35 4 3 4 19 -1 35 -5 17 -5 30 0 30 14 0 17 82 3 87 -7 3 -10 9
-7 14 3 5 3 9 0 9 -3 0 -8 -5 -11 -10z m8 -86 c-3 -9 -23 -13 -36 -6 -4 2 -5
7 -2 12 7 11 41 6 38 -6z"/>
<path d="M994 558 c-12 -15 -13 -18 -3 -10 13 10 19 10 28 -1 12 -16 54 -17
59 -2 2 6 9 17 15 25 6 8 -1 4 -16 -9 -25 -23 -32 -21 -27 4 1 6 -2 7 -6 3 -4
-4 -13 -3 -19 2 -8 7 -18 3 -31 -12z m37 -5 c13 -16 12 -17 -3 -4 -10 7 -18
15 -18 17 0 8 8 3 21 -13z"/>
<path d="M1321 524 c0 -11 3 -14 6 -6 3 7 2 16 -1 19 -3 4 -6 -2 -5 -13z"/>
<path d="M1066 502 c-3 -5 1 -9 9 -9 8 0 12 4 9 9 -3 4 -7 8 -9 8 -2 0 -6 -4
-9 -8z"/>
<path d="M994 453 c0 -18 3 -20 15 -10 8 7 16 11 19 9 3 -1 7 3 8 11 1 7 -8
13 -20 13 -16 0 -22 -6 -22 -23z m30 9 c3 -5 -1 -9 -9 -9 -8 0 -12 4 -9 9 3 4
7 8 9 8 2 0 6 -4 9 -8z"/>
<path d="M576 455 c-9 -26 -7 -32 5 -12 6 10 9 21 6 23 -2 3 -7 -2 -11 -11z"/>
<path d="M1285 460 c-3 -5 -1 -10 4 -10 6 0 11 5 11 10 0 6 -2 10 -4 10 -3 0
-8 -4 -11 -10z"/>
<path d="M1073 435 c0 -6 6 -12 12 -12 6 0 12 6 12 12 0 6 -6 12 -12 12 -6 0
-12 -6 -12 -12z"/>
<path d="M1258 403 c-7 -16 -20 -40 -31 -55 -10 -16 -15 -28 -10 -28 4 0 14 9
20 19 17 26 43 91 37 91 -2 0 -10 -12 -16 -27z"/>
<path d="M899 418 c-6 -20 -6 -39 0 -42 4 -3 7 6 7 20 0 20 -4 32 -7 22z"/>
<path d="M988 376 c-23 -28 -25 -36 -14 -46 9 -7 16 -7 20 -1 4 5 1 13 -5 17
-9 5 -8 10 3 18 12 9 32 46 25 46 -1 0 -14 -15 -29 -34z"/>
<path d="M1030 401 c0 -5 7 -11 15 -15 22 -8 19 -26 -4 -26 -27 0 -33 -14 -15
-36 14 -18 15 -18 9 4 -7 23 10 32 17 10 3 -8 10 -4 17 10 11 21 10 26 -8 43
-22 21 -31 24 -31 10z"/>
<path d="M2813 385 c-3 -9 -3 -18 -1 -21 3 -3 8 4 11 16 6 23 -1 27 -10 5z"/>
<path d="M880 335 c1 -5 1 -12 0 -15 -7 -20 -7 -41 2 -46 6 -4 5 -9 -3 -14
-10 -7 -10 -12 -1 -23 10 -11 9 -17 -1 -26 -8 -6 -16 -8 -20 -5 -3 3 -4 -2 -3
-13 2 -10 7 -16 12 -13 5 3 8 9 6 15 -2 5 0 6 4 2 4 -4 9 -20 10 -35 1 -15 5
-43 9 -62 3 -19 7 -44 7 -55 0 -11 2 -14 5 -7 4 10 8 10 20 1 11 -10 14 -10
11 2 -2 8 2 13 8 12 5 -1 10 9 10 21 0 16 -5 23 -15 21 -9 -1 -15 -11 -15 -23
1 -12 -2 -20 -6 -17 -4 2 -7 27 -7 55 0 28 -3 53 -7 57 -3 3 0 13 7 21 9 13 9
14 0 8 -15 -8 -15 -7 -17 73 0 33 -5 63 -9 68 -5 4 -8 4 -7 -2z m65 -254 c3
-5 2 -12 -3 -15 -5 -3 -9 1 -9 9 0 17 3 19 12 6z"/>
<path d="M929 321 c9 -6 10 -11 2 -15 -15 -10 -14 -23 3 -29 8 -3 22 4 33 15
10 12 13 18 7 15 -7 -4 -17 0 -24 8 -7 8 -18 15 -24 15 -6 0 -5 -4 3 -9z m25
-32 c-3 -5 -10 -7 -15 -3 -5 3 -7 10 -3 15 3 5 10 7 15 3 5 -3 7 -10 3 -15z"/>
<path d="M996 289 c4 -7 -26 -36 -33 -31 -3 2 -8 0 -11 -4 -4 -4 -2 -4 5 0 6
3 15 2 18 -4 5 -8 11 -8 19 -1 7 6 15 9 18 6 3 -3 11 3 19 12 13 16 12 17 -3
5 -11 -9 -18 -10 -23 -2 -3 5 4 14 17 19 22 10 22 10 -4 8 -15 -1 -25 -4 -22
-8z"/>
<path d="M2820 256 c0 -8 4 -17 8 -20 4 -2 8 4 8 15 0 10 -4 19 -8 19 -4 0 -8
-6 -8 -14z"/>
<path d="M1046 248 c3 -5 10 -6 15 -3 13 9 11 12 -6 12 -8 0 -12 -4 -9 -9z"/>
<path d="M1023 225 c0 -8 4 -12 9 -9 5 3 6 10 3 15 -9 13 -12 11 -12 -6z"/>
<path d="M934 179 c-3 -5 -11 -6 -17 -2 -7 4 -6 0 2 -10 7 -9 17 -14 22 -11 5
3 9 -1 9 -8 0 -8 4 -7 10 4 6 10 19 15 32 13 11 -3 17 -1 14 3 -4 4 -12 8 -17
8 -5 1 -10 2 -11 4 -10 7 -39 7 -44 -1z m31 -8 c-9 -8 -36 -10 -30 -2 2 4 11
8 20 8 8 0 13 -3 10 -6z"/>
<path d="M775 159 c-4 -6 -5 -12 -2 -15 2 -3 7 2 10 11 7 17 1 20 -8 4z"/>
<path d="M1011 148 c-13 -22 -13 -23 6 -5 11 9 23 14 28 10 4 -5 5 -2 1 5 -10
18 -19 15 -35 -10z"/>
<path d="M660 146 c0 -8 4 -17 9 -20 5 -4 7 3 4 14 -6 23 -13 26 -13 6z"/>
<path d="M843 105 c0 -8 3 -13 5 -10 3 3 11 0 18 -6 8 -7 14 -7 19 1 3 5 4 11
1 11 -3 1 -9 2 -13 3 -5 1 -13 4 -19 8 -6 4 -11 1 -11 -7z"/>
<path d="M738 103 c7 -3 16 -2 19 1 4 3 -2 6 -13 5 -11 0 -14 -3 -6 -6z"/>
<path d="M602 60 c0 -19 2 -27 5 -17 2 9 2 25 0 35 -3 9 -5 1 -5 -18z"/>
<path d="M760 80 c0 -5 5 -10 11 -10 5 0 7 5 4 10 -3 6 -8 10 -11 10 -2 0 -4
-4 -4 -10z"/>
<path d="M995 60 c3 -5 1 -11 -5 -15 -5 -3 -10 0 -10 7 0 10 -3 9 -9 -2 -13
-19 -3 -34 13 -21 9 7 17 7 27 -2 7 -6 10 -8 6 -3 -4 5 -2 15 4 23 6 7 10 13
8 14 -31 6 -38 6 -34 -1z"/>
</g>
</svg>
